<svg xmlns="http://www.w3.org/2000/svg" width="14.371" height="20" viewBox="0 0 14.371 20">
  <g id="comic" transform="translate(0 0)">
    <path id="Path_267" data-name="Path 267" d="M2.1,17.066H13.174v1.677H1.976a.841.841,0,0,1,.12-1.677Zm-.9-1.078,0-13.535c0-.534.138-1.2.78-1.2h11.2V15.808H2.156a3.335,3.335,0,0,0-.958.18ZM0,1.976V18.024A2.07,2.07,0,0,0,2.1,20H13.772a.607.607,0,0,0,.6-.6V.6a.608.608,0,0,0-.6-.6H2.036A2.075,2.075,0,0,0,0,1.976Z" transform="translate(0 0)" fill="#93a4ab" fill-rule="evenodd"/>
    <path id="Path_268" data-name="Path 268" d="M5.08,11.267l.19-.548C5.8,8.692,5.156,9.64,4.285,8.47c-1.958-2.63,2.825-4.656,5.571-3,2.326,1.4,1.239,3.619-1.356,4.164-1.44.3-1.138-.208-1.843.672a4.267,4.267,0,0,1-1.072.785,1.258,1.258,0,0,0-.436.223ZM2.575,7.305a3.317,3.317,0,0,0,1.29,2.482c.17.135.124.159.326.213-.116.242-.221.834-.336,1.161-.254.724-.663,1.094-.262,1.533.473.518,2.075-.286,2.5-.49a4.818,4.818,0,0,0,.849-.528,1.969,1.969,0,0,0,.718-.719,5.738,5.738,0,0,0,3.089-.923,4.951,4.951,0,0,0,1.041-1,3.025,3.025,0,0,0,.052-3.4,5.216,5.216,0,0,0-4-1.986A5.736,5.736,0,0,0,4.071,4.67a3.394,3.394,0,0,0-1.5,2.635Z" transform="translate(0 0)" fill="#93a4ab" fill-rule="evenodd"/>
  </g>
</svg>
