<svg width="20" height="20" viewBox="0 0 20 20" fill="none" xmlns="http://www.w3.org/2000/svg">
<path d="M19.4737 1H0.526316C0.236842 1 0 1.2454 0 1.54533V14.6333C0 14.9332 0.236842 15.1786 0.526316 15.1786H4.73684V18.4506C4.73684 18.9414 5.28947 19.1868 5.63158 18.8323L9.21053 15.1786H19.4737C19.7632 15.1786 20 14.9332 20 14.6333V1.54533C20 1.2454 19.7632 1 19.4737 1ZM18.9474 14.0879H9C8.86842 14.0879 8.73684 14.1425 8.63158 14.2515L5.78947 17.1418V14.6333C5.78947 14.3333 5.55263 14.0879 5.26316 14.0879H1.05263V2.09066H18.9474V14.0879Z" fill="#506070"/>
</svg>
