<svg xmlns="http://www.w3.org/2000/svg" width="19.195" height="20" viewBox="0 0 19.195 20">
  <g id="game" transform="translate(0 0)">
    <path id="Path_275" data-name="Path 275" d="M1.063,7.686C.09,7.97.029,8.639.031,9.772c0,1.586-.1,8.642.056,9.2.255.911,1.02,1,2.086.995,1.585,0,8.643.1,9.2-.056.911-.255,1-1.02.995-2.086,0-1.587.1-8.641-.056-9.2-.255-.911-1.02-1-2.086-.994-1.548,0-8.653-.094-9.165.056ZM1.4,18.6H11V9H1.4v9.6Z" transform="translate(0 0)" fill="#93a4ab" fill-rule="evenodd"/>
    <path id="Path_276" data-name="Path 276" d="M5.679,6.944H7.1L8.578,1.378,17.841,3.84,15.372,13.1l-2.313-.61,0,1.431c1.365.291,3.019,1.186,3.611-.374l2.217-8.237c.58-2.181.495-2.463-1.518-3.021C14.645,1.54,11.865.8,9.123.085c-1.9-.493-1.941,1.26-2.347,2.722-.342,1.23-.873,2.907-1.1,4.137Z" transform="translate(0 0)" fill="#93a4ab" fill-rule="evenodd"/>
    <path id="Path_277" data-name="Path 277" d="M9.746,2.558a1.36,1.36,0,1,0,.695,2.628,1.36,1.36,0,0,0-.695-2.628Z" transform="translate(0 0)" fill="#93a4ab" fill-rule="evenodd"/>
    <path id="Path_278" data-name="Path 278" d="M8.6,9.742a1.364,1.364,0,1,0,.715,2.633A1.364,1.364,0,0,0,8.6,9.742Z" transform="translate(0 0)" fill="#93a4ab" fill-rule="evenodd"/>
    <path id="Path_279" data-name="Path 279" d="M5.86,12.484a1.364,1.364,0,1,0,.715,2.632,1.364,1.364,0,0,0-.715-2.632Z" transform="translate(0 0)" fill="#93a4ab" fill-rule="evenodd"/>
    <path id="Path_280" data-name="Path 280" d="M3.118,15.226a1.364,1.364,0,1,0,.715,2.632A1.364,1.364,0,0,0,3.118,15.226Z" transform="translate(0 0)" fill="#93a4ab" fill-rule="evenodd"/>
    <path id="Path_281" data-name="Path 281" d="M14.9,4.031a1.353,1.353,0,1,0,.941,2.536A1.353,1.353,0,0,0,14.9,4.031Z" transform="translate(0 0)" fill="#93a4ab" fill-rule="evenodd"/>
    <path id="Path_282" data-name="Path 282" d="M13.056,9.5v2.2c.945.486,2.2.162,2.225-1.068C15.3,9.377,14.11,8.941,13.056,9.5Z" transform="translate(0 0)" fill="#93a4ab" fill-rule="evenodd"/>
  </g>
</svg>
