<svg width="20" height="20" viewBox="0 0 20 20" fill="none" xmlns="http://www.w3.org/2000/svg">
<path fill-rule="evenodd" clip-rule="evenodd" d="M5.83333 9.1665V11.1665H9.14167C9.00833 12.024 8.14167 13.6832 5.83333 13.6832C3.84167 13.6832 2.21667 12.034 2.21667 9.99984C2.21667 7.9665 3.84167 6.3165 5.83333 6.3165C6.96667 6.3165 7.725 6.79984 8.15833 7.2165L9.74167 5.6915C8.725 4.7415 7.40833 4.1665 5.83333 4.1665C2.60833 4.1665 0 6.77484 0 9.99984C0 13.2248 2.60833 15.8332 5.83333 15.8332C9.2 15.8332 11.4342 13.4665 11.4342 10.1332C11.4342 9.74984 11.3917 9.45817 11.3417 9.1665H5.83333ZM5.83333 9.1665L20 10.8332H17.5V13.3332H15.8333V10.8332H13.3333V9.1665H15.8333V6.6665H17.5V9.1665H20V10.8332L5.83333 9.1665Z" fill="black"/>
</svg>
