<svg xmlns="http://www.w3.org/2000/svg" width="19.934" height="20" viewBox="0 0 19.934 20">
  <path id="in_progress" d="M12.308,2.308a9.94,9.94,0,0,0-1.118.066L11.36,3.9a8.46,8.46,0,1,1,.948,16.867,8.6,8.6,0,0,1-.942-.056l-.17,1.528A10,10,0,1,0,12.308,2.308Zm-3.3.568a9.994,9.994,0,0,0-2.015.974l.819,1.3a8.435,8.435,0,0,1,1.705-.822ZM5.236,5.237a10.116,10.116,0,0,0-1.39,1.756l1.3.819A8.511,8.511,0,0,1,6.324,6.325ZM16.345,8.724l-4.9,5.6L8.173,11.707l-.962,1.2,4.422,3.537L17.5,9.737ZM2.874,9.011a9.956,9.956,0,0,0-.5,2.182l1.528.17a8.48,8.48,0,0,1,.425-1.845ZM3.9,13.259l-1.528.171a9.976,9.976,0,0,0,.5,2.183L4.33,15.1A8.367,8.367,0,0,1,3.9,13.259Zm1.248,3.55-1.3.819a10.032,10.032,0,0,0,1.39,1.755l1.086-1.089A8.48,8.48,0,0,1,5.152,16.809ZM7.816,19.47,7,20.771a9.975,9.975,0,0,0,2.016.971l.508-1.451A8.431,8.431,0,0,1,7.816,19.47Z" transform="translate(-2.374 -2.308)" fill="#93a4ab"/>
</svg>
