<svg id="info" xmlns="http://www.w3.org/2000/svg" width="20" height="20" viewBox="0 0 20 20">
  <g id="Group_2" data-name="Group 2">
    <g id="Group_1" data-name="Group 1">
      <path id="Path_3" data-name="Path 3" d="M17.071,2.929A10,10,0,1,0,2.929,17.071,10,10,0,1,0,17.071,2.929ZM10,18.384A8.384,8.384,0,1,1,18.384,10,8.394,8.394,0,0,1,10,18.384Z" fill="#93a4ab"/>
    </g>
  </g>
  <g id="Group_4" data-name="Group 4" transform="translate(9.192 9.192)">
    <g id="Group_3" data-name="Group 3">
      <path id="Path_4" data-name="Path 4" d="M10,9.192A.808.808,0,0,0,9.192,10v3.677a.808.808,0,1,0,1.616,0V10A.808.808,0,0,0,10,9.192Z" transform="translate(-9.192 -9.192)" fill="#93a4ab"/>
    </g>
  </g>
  <g id="Group_6" data-name="Group 6" transform="translate(9.192 5.515)">
    <g id="Group_5" data-name="Group 5">
      <path id="Path_5" data-name="Path 5" d="M10.571,5.752a.808.808,0,1,0,.237.571A.814.814,0,0,0,10.571,5.752Z" transform="translate(-9.192 -5.515)" fill="#93a4ab"/>
    </g>
  </g>
</svg>
