<svg width="41" height="47" viewBox="0 0 41 47" fill="none" xmlns="http://www.w3.org/2000/svg">
<path d="M2.4999 46.1C1.8999 46.1 1.3999 45.9 1.0999 45.6C0.399903 45 0.399902 44.1 0.399902 43.8V18.1H4.3999V42.1H13.3999V46.1H2.8999C2.7999 46.1 2.5999 46.1 2.4999 46.1Z" fill="black"/>
<path d="M37.7999 46.1C37.5999 46.1 37.4999 46.1 37.2999 46.1C37.1999 46.1 37.1999 46.1 37.0999 46.1H26.3999V42.1H36.3999V19.1H40.3999V43.8C40.3999 44.4 40.0999 45 39.6999 45.5C39.0999 46 38.2999 46.1 37.7999 46.1Z" fill="black"/>
<path d="M38.3998 21.1C37.8998 21.1 37.3998 20.9 37.0998 20.6L19.9998 5.19998L3.69981 19.6C2.89981 20.3 1.59981 20.3 0.89981 19.4C0.199811 18.6 0.199811 17.3 1.09981 16.6L18.6998 0.999976C19.4998 0.299976 20.5998 0.299976 21.3998 0.999976L39.7998 17.6C40.5998 18.3 40.6998 19.6 39.8998 20.4C39.4998 20.8 38.8998 21.1 38.3998 21.1Z" fill="black"/>
<path d="M28.3999 46.1H24.3999V33.1H16.3999V46.1H12.3999V31.1C12.3999 30 13.2999 29.1 14.3999 29.1H26.3999C27.4999 29.1 28.3999 30 28.3999 31.1V46.1Z" fill="black"/>
</svg>
