<svg xmlns="http://www.w3.org/2000/svg" width="20" height="15.013" viewBox="0 0 20 15.013"><g transform="translate(0 0)"><path d="M-4154.269-262.48c-.208,0-.464,0-.731-.007v-.375a4.273,4.273,0,0,0,.319-.888,6.182,6.182,0,0,1,1.3-2.529,7.842,7.842,0,0,1,2.882-2.215,4.813,4.813,0,0,1-1.923-3.254,4.966,4.966,0,0,1,1.093-3.932l.314-.323.024-.022.022-.02.295-.26a4.645,4.645,0,0,1,3.128-1.188,5.172,5.172,0,0,1,2.843.871,4.854,4.854,0,0,1,1.882,2.367,5.178,5.178,0,0,1,.03,3.389,4.364,4.364,0,0,1-1.662,2.319,2.1,2.1,0,0,0,.647.447,6.369,6.369,0,0,1,2.27,1.936c.518.664,1.612,2.511,1.49,3.676h-1.533a2.682,2.682,0,0,1-.219-.591,5.541,5.541,0,0,0-2-3.082,5.8,5.8,0,0,0-3.659-1.326,6.416,6.416,0,0,0-.889.064,5.927,5.927,0,0,0-3.722,2.1,4.216,4.216,0,0,0-1.145,2.348C-4153.258-262.555-4153.268-262.48-4154.269-262.48Zm6.769-13.507a3.5,3.5,0,0,0-3.5,3.5,3.5,3.5,0,0,0,3.5,3.5,3.5,3.5,0,0,0,3.5-3.5A3.5,3.5,0,0,0-4147.5-275.987Zm12.5,11.748h0l-1.661-.005a3.243,3.243,0,0,0-2.469-3.173,1.735,1.735,0,0,1-.7-.379c-.48-.655.064-1.117.424-1.423a1.736,1.736,0,0,0,.229-.216,3.309,3.309,0,0,0-.282-4.7,3.222,3.222,0,0,0-.848-.537,4.673,4.673,0,0,0-.528-.183,2.513,2.513,0,0,1-.414-.147l-.906-1.662c.14-.009.266-.012.384-.012a4.993,4.993,0,0,1,4.417,2.5c1.185,2.083.763,3.612-.365,5.547a4.129,4.129,0,0,1,1.8,1.565,4.078,4.078,0,0,1,.769,1.764,2.307,2.307,0,0,0,.153.541v.516Z" transform="translate(4155 277.493)" fill="#93a4ab"/></g></svg>