<svg width="20" height="20" viewBox="0 0 20 20" fill="none" xmlns="http://www.w3.org/2000/svg">
<g clip-path="url(#clip0)">
<path d="M19.8039 18.7954L16.4043 15.1608C17.7862 13.5049 18.5422 11.4159 18.5401 9.25915C18.5401 4.15365 14.3821 -0.000732422 9.27089 -0.000732422C4.16039 -0.000732422 0.00244141 4.15293 0.00244141 9.25915C0.00244141 14.3646 4.16039 18.5183 9.27089 18.5183C10.5949 18.5209 11.904 18.2381 13.1089 17.6893C13.2809 17.611 13.4147 17.4676 13.4809 17.2906C13.5471 17.1136 13.5404 16.9176 13.462 16.7457C13.3837 16.5737 13.2403 16.4399 13.0634 16.3737C12.8864 16.3075 12.6904 16.3143 12.5184 16.3926C11.4989 16.8569 10.3912 17.096 9.27089 17.0938C4.94585 17.0938 1.42841 13.5792 1.42841 9.25915C1.42841 4.93911 4.94585 1.42381 9.27089 1.42381C13.5959 1.42381 17.1141 4.93839 17.1141 9.25915C17.118 11.2828 16.3344 13.2285 14.9291 14.6845C14.7979 14.8206 14.7262 15.0032 14.7297 15.1922C14.7332 15.3811 14.8116 15.5609 14.9476 15.6921C14.9698 15.7128 14.9976 15.7206 15.0219 15.7385C15.0412 15.7671 15.0512 15.7992 15.0755 15.8249L18.7628 19.7672C18.9028 19.9171 19.0927 19.9928 19.2827 19.9928C19.4576 19.9928 19.6326 19.9293 19.7697 19.8008C19.8381 19.7371 19.8933 19.6606 19.9321 19.5755C19.9709 19.4905 19.9925 19.3986 19.9957 19.3052C19.9989 19.2118 19.9836 19.1186 19.9507 19.0312C19.9178 18.9437 19.8679 18.8635 19.8039 18.7954Z" fill="#506070"/>
</g>
</svg>
