<svg xmlns="http://www.w3.org/2000/svg" width="20" height="14.442" viewBox="0 0 20 14.442">
  <g id="tvseries" transform="translate(0 0)">
    <path id="Path_289" data-name="Path 289" d="M7.981,8.954c0,1.059,1.11.074,2.38-.664,1.992-1.158,3.344-1.444,2.007-2.105l-3.2-1.866C7.65,3.5,7.981,3.236,7.981,8.954ZM4.711,14.442H15.289c.99,0,.933-.847,0-.847H4.756C3.79,13.594,3.625,14.442,4.711,14.442ZM19.232.764c.133,1.673.02,8.084.029,10.324,0,.53.156.917-.324.969l-14.138,0C.266,12.053.735,12.378.738,11,.743,8.847.64,2.366.768.764,1.5.648,18.489.646,19.232.764ZM0,12.835H20V0H0Z" transform="translate(0 0)" fill="#93a4ab" fill-rule="evenodd"/>
  </g>
</svg>
