<svg width="20" height="16" viewBox="0 0 20 16" fill="none" xmlns="http://www.w3.org/2000/svg">
<path d="M20 1.89401C19.2641 2.21525 18.4734 2.4324 17.6434 2.53003C18.4905 2.03014 19.1411 1.23858 19.4475 0.295321C18.6546 0.758259 17.7765 1.09438 16.8418 1.27549C16.0934 0.490471 15.027 0 13.8468 0C11.5807 0 9.74357 1.80842 9.74357 4.03909C9.74357 4.35567 9.77986 4.66395 9.84982 4.95962C6.43967 4.79112 3.4162 3.18308 1.39246 0.739263C1.03926 1.33583 0.836873 2.02968 0.836873 2.76994C0.836873 4.17133 1.56125 5.40768 2.66226 6.13202C1.98964 6.11102 1.35695 5.92933 0.803787 5.62678C0.803397 5.64363 0.803397 5.66054 0.803397 5.67758C0.803397 7.63462 2.21781 9.26711 4.09484 9.63826C3.75058 9.73051 3.38804 9.78004 3.01382 9.78004C2.74941 9.78004 2.49238 9.75466 2.24179 9.70744C2.76398 11.3121 4.27929 12.4801 6.07483 12.5126C4.67054 13.596 2.90128 14.2417 0.978826 14.2417C0.647616 14.2417 0.321015 14.2226 0 14.1851C1.81586 15.3313 3.97269 16 6.28987 16C13.8372 16 17.9644 9.8451 17.9644 4.50741C17.9644 4.33229 17.9603 4.1581 17.9525 3.98483C18.7543 3.41538 19.4499 2.70399 20 1.89401Z" fill="#93A4AB"/>
</svg>
