<svg width="20" height="20" viewBox="0 0 20 20" fill="none" xmlns="http://www.w3.org/2000/svg">
<path d="M20 4.01239C19.2641 4.3537 18.4734 4.58442 17.6434 4.68816C18.4905 4.15702 19.1411 3.31599 19.4475 2.31378C18.6546 2.80565 17.7765 3.16278 16.8418 3.35521C16.0934 2.52113 15.027 2 13.8468 2C11.5807 2 9.74357 3.92144 9.74357 6.29153C9.74357 6.6279 9.77986 6.95545 9.84982 7.2696C6.43967 7.09056 3.4162 5.38202 1.39246 2.78547C1.03926 3.41932 0.836873 4.15653 0.836873 4.94306C0.836873 6.43204 1.56125 7.74566 2.66226 8.51527C1.98964 8.49296 1.35695 8.29992 0.803787 7.97846C0.803397 7.99635 0.803397 8.01433 0.803397 8.03243C0.803397 10.1118 2.21781 11.8463 4.09484 12.2407C3.75058 12.3387 3.38804 12.3913 3.01382 12.3913C2.74941 12.3913 2.49238 12.3643 2.24179 12.3142C2.76398 14.0191 4.27929 15.2601 6.07483 15.2946C4.67054 16.4458 2.90128 17.1318 0.978826 17.1318C0.647616 17.1318 0.321015 17.1115 0 17.0717C1.81586 18.2895 3.97269 19 6.28987 19C13.8372 19 17.9644 12.4604 17.9644 6.78912C17.9644 6.60306 17.9603 6.41798 17.9525 6.23388C18.7543 5.62884 19.4499 4.87299 20 4.01239Z" fill="#506070"/>
</svg>
