<svg xmlns="http://www.w3.org/2000/svg" width="20" height="18.705" viewBox="0 0 20 18.705">
  <g id="video" transform="translate(0 0)">
    <path id="Path_283" data-name="Path 283" d="M0,9.353a9.4,9.4,0,0,0,3.492,7.295c.14.11.2.163.341.261.242.164.406.288.666.445A9.178,9.178,0,0,0,8.889,18.7H20v-1.25H9.444a8.022,8.022,0,0,1-7.361-4.583A8.2,8.2,0,0,1,3.229,4.064a6.953,6.953,0,0,1,.5-.518A7.557,7.557,0,0,1,6.078,1.958a8.055,8.055,0,0,1,6.531-.029A7.887,7.887,0,0,1,15.7,4.3a3.516,3.516,0,0,1,.221.288,7.955,7.955,0,0,1,1.528,4.444,7.792,7.792,0,0,1-.925,4.121,7.481,7.481,0,0,1-1.991,2.407l.89.915a10.979,10.979,0,0,0,2.064-2.451c.088-.145.144-.271.232-.417a9.555,9.555,0,0,0,1.027-4.3,9.27,9.27,0,0,0-1.832-5.529l-.795-.918A8.571,8.571,0,0,0,13.5.942,9.022,9.022,0,0,0,9.861,0a8.729,8.729,0,0,0-2.936.3A9.437,9.437,0,0,0,0,9.353Z" transform="translate(0 0)" fill="#93a4ab" fill-rule="evenodd"/>
    <path id="Path_284" data-name="Path 284" d="M12.685,9.353a1.387,1.387,0,0,1,1.25-1.343,1.289,1.289,0,0,1,1.123.4,1.364,1.364,0,1,1-2.373.938Zm-1.25-.231a2.512,2.512,0,0,0,.821,2.142,2.638,2.638,0,1,0,.023-3.844,2.546,2.546,0,0,0-.844,1.7Z" transform="translate(0 0)" fill="#93a4ab" fill-rule="evenodd"/>
    <path id="Path_285" data-name="Path 285" d="M4.769,10.7a1.164,1.164,0,0,1-1.031-.4,1.346,1.346,0,0,1,.3-2.129A1.355,1.355,0,1,1,4.769,10.7ZM2.083,9.121a2.468,2.468,0,0,0,.8,2.118A2.63,2.63,0,0,0,7.315,9.584a2.507,2.507,0,0,0-.8-2.119A2.628,2.628,0,0,0,2.083,9.121Z" transform="translate(0 0)" fill="#93a4ab" fill-rule="evenodd"/>
    <path id="Path_286" data-name="Path 286" d="M8.009,14.029a1.386,1.386,0,0,1,1.25-1.343,1.33,1.33,0,0,1,1.343.786,1.351,1.351,0,0,1-1.066,1.9H9.306a1.359,1.359,0,0,1-1.3-1.343Zm-1.25-.093v.324a2.622,2.622,0,0,0,2.454,2.454,2.5,2.5,0,0,0,1.846-.608,2.322,2.322,0,0,0,.67-.858,2.623,2.623,0,1,0-4.97-1.312Z" transform="translate(0 0)" fill="#93a4ab" fill-rule="evenodd"/>
    <path id="Path_287" data-name="Path 287" d="M8.009,4.677a1.869,1.869,0,0,1,.109-.585,1.661,1.661,0,0,1,.274-.421,1.362,1.362,0,1,1,.043,1.922,1.512,1.512,0,0,1-.426-.916Zm-1.25-.231A2.532,2.532,0,0,0,7.58,6.587,2.631,2.631,0,1,0,9.4,2.038,2.665,2.665,0,0,0,6.759,4.445Z" transform="translate(0 0)" fill="#93a4ab" fill-rule="evenodd"/>
    <path id="Path_288" data-name="Path 288" d="M8.75,9.26A.632.632,0,1,0,10,9.445c0-.379-.122-.741-.6-.741A.6.6,0,0,0,8.75,9.26Z" transform="translate(0 0)" fill="#93a4ab" fill-rule="evenodd"/>
  </g>
</svg>
