<svg width="20" height="20" viewBox="0 0 20 20" fill="none" xmlns="http://www.w3.org/2000/svg">
<path d="M4.38652 5.23869C4.94487 6.6788 5.65249 8.03657 6.58449 9.25548C6.7081 9.41768 6.86392 9.5619 7.02807 9.67931C7.26783 9.85129 7.49404 9.79084 7.59153 9.50439C7.69464 9.20379 7.78927 8.59458 7.79489 8.27892C7.81028 7.45411 7.79259 6.91357 7.75016 6.08977C7.72265 5.56214 7.54307 5.09886 6.79996 4.95902C6.57048 4.91566 6.54916 4.71838 6.6966 4.52157C7.00353 4.11184 7.43111 4.04654 7.89478 4.0207C8.64627 3.9783 9.40051 4.0129 10.1529 4.0207C10.4594 4.02363 10.7677 4.04942 11.0695 4.11814C11.4632 4.20778 11.674 4.49621 11.7389 4.89762C11.7725 5.10468 11.7898 5.31755 11.7851 5.52706C11.7655 6.42737 11.724 7.3272 11.7142 8.22703C11.71 8.58022 11.7347 8.94222 11.807 9.28618C11.9082 9.76554 12.2207 9.88588 12.5403 9.53953C12.9461 9.09962 13.3039 8.60462 13.6397 8.10187C14.2498 7.18742 14.7055 6.18385 15.0978 5.1491C15.3007 4.61517 15.4561 4.4992 16.006 4.49776C17.0397 4.4953 18.0734 4.49434 19.107 4.49776C19.2904 4.49872 19.4821 4.51677 19.6551 4.57427C19.9359 4.66782 20.0474 4.90702 19.9816 5.21055C19.8282 5.92185 19.4601 6.52642 19.066 7.10765C18.4335 8.0401 17.7706 8.95018 17.1232 9.8719C17.0407 9.98931 16.9679 10.1145 16.9002 10.2416C16.6581 10.6986 16.6749 10.9549 17.028 11.3353C17.5901 11.9409 18.1919 12.5075 18.7362 13.1296C19.1318 13.5822 19.4979 14.0733 19.8114 14.5902C20.2079 15.2439 19.963 15.8597 19.2223 15.9693C18.7563 16.0381 16.4801 15.9699 16.3624 15.9693C15.7505 15.9665 15.214 15.7448 14.7821 15.3107C14.3016 14.8274 13.865 14.2973 13.4037 13.7931C13.2647 13.6411 13.1163 13.4954 12.9564 13.3683C12.579 13.0677 12.2086 13.1344 12.0323 13.5973C11.8816 13.9948 11.7515 15.0388 11.7454 15.128C11.7137 15.5942 11.4296 15.8914 10.9296 15.9201C9.48589 16.002 8.08695 15.8339 6.78371 15.1046C5.67912 14.4868 4.79708 13.6133 4.03301 12.5947C2.81929 10.9766 1.86061 9.19808 0.985356 7.3673C0.940625 7.2737 0.0541272 5.30351 0.0303046 5.21045C-0.0488826 4.89885 0.024988 4.60118 0.277068 4.49872C0.434215 4.43486 3.35703 4.49851 3.40565 4.50123C3.87203 4.52761 4.19006 4.73312 4.38652 5.23869Z" fill="#93A4AB"/>
</svg>
