<?xml version="1.0" standalone="no"?>
<!DOCTYPE svg PUBLIC "-//W3C//DTD SVG 1.1//EN" "http://www.w3.org/Graphics/SVG/1.1/DTD/svg11.dtd" >
<svg xmlns="http://www.w3.org/2000/svg">
<defs>
  <font id="icon-font" horiz-adv-x="1699.2140668709205">
    <font-face font-family="icon-font"
      units-per-em="1000" ascent="1000"
      descent="0" />
    <missing-glyph horiz-adv-x="0" />
    <glyph glyph-name="persons"
      unicode="&#xF101;"
      horiz-adv-x="1332.1787783920602" d="M48.6911343502143 1.5e-12C34.8364750549369 1.5e-12 17.7845866915185 1.5e-12 -1.55e-11 0.4662625724387V25.4446146672898A284.6199960034636 284.6199960034636 0 0 1 21.2482515153379 84.5933524278973A411.77646040098585 411.77646040098585 0 0 0 107.8398721108218 253.0473589555733A522.3472990075268 522.3472990075268 0 0 0 299.8068340771177 400.586158662494A320.5888230200493 320.5888230200493 0 0 0 171.7178445347211 617.3316459068822A330.77999067474855 330.77999067474855 0 0 0 244.5214147738472 879.2379937387611L265.4366215946025 900.752681009793L267.035236128673 902.2180776660242L268.5006327849043 903.5502564444162L288.1502697661872 920.868580563513A309.398521281556 309.398521281556 0 0 0 496.5030307067053 1000.0000000000014A344.5014320921868 344.5014320921868 0 0 0 685.8722440551367 941.983614201027A323.31978951575303 323.31978951575303 0 0 0 811.2302671018296 784.3202557783268A344.9010857257044 344.9010857257044 0 0 0 813.2285352694175 558.5825617797923A290.6814094451475 290.6814094451475 0 0 0 702.5244787850373 404.1164324252329A139.87877173116632 139.87877173116632 0 0 1 745.6204622660205 374.3422367281705A424.2323319789515 424.2323319789515 0 0 0 896.8227536135192 245.387330979819C931.3261839738736 201.1589955372027 1004.1963631519192 78.1322853526959 996.0700726037278 0.5328715113584H893.9585692399764A178.64517418237526 178.64517418237526 0 0 0 879.3712116165834 39.8987544128437A369.0801305535203 369.0801305535203 0 0 1 746.1533337773774 245.1875041630603A386.3318457336975 386.3318457336975 0 0 1 502.43122627055 333.5109571704538A427.362952108173 427.362952108173 0 0 1 443.2158795710229 329.2479850795993A394.79118097648706 394.79118097648706 0 0 1 195.2974089122605 189.3692133484329A280.8232864850463 280.8232864850463 0 0 1 119.0301738493151 32.971424765205C116.032771597961 4.995670418971 115.3666822087505 1.5e-12 48.6911343502143 1.5e-12zM499.567041897007 899.6869379870793A233.13128621861054 233.13128621861054 0 0 1 266.4357556783965 666.5556517684688A233.13128621861054 233.13128621861054 0 0 1 499.567041897007 433.4243655498583A233.13128621861054 233.13128621861054 0 0 1 732.6983281156175 666.5556517684688A233.13128621861054 233.13128621861054 0 0 1 499.5670418970225 899.6869379870797zM1332.1787783920445 117.1651235595832H1332.1787783920445L1221.5413308465838 117.4981682541813A216.01278891627254 216.01278891627254 0 0 1 1057.083860654084 328.8483314460816A115.56650902551124 115.56650902551124 0 0 0 1010.457603410362 354.0931192966111C978.4853127289526 397.7219742889511 1014.7205755012166 428.4953040698076 1038.6997935122736 448.8776393792063A115.63311796443082 115.63311796443082 0 0 1 1053.9532405248626 463.2651701858404A220.40897888496636 220.40897888496636 0 0 1 1035.1695197495346 776.3271831079745A214.61400119896086 214.61400119896086 0 0 1 978.6851395457112 812.0961833078013A311.2635715713049 311.2635715713049 0 0 1 943.5156197961608 824.2856191300887A167.38826350496234 167.38826350496234 0 0 0 915.9395190834452 834.0771331512703L855.5918204222847 944.7811896356505C864.9170718710293 945.380670085927 873.3097981748992 945.5804969026858 881.1696529674124 945.5804969026858A332.57843202557785 332.57843202557785 0 0 0 1175.3813361752989 779.0581496036782C1254.3129287950283 640.3117298341451 1226.203956570956 538.4666622260722 1151.0690734696439 409.5783654166404A275.0283087990408 275.0283087990408 0 0 0 1270.9651635249293 305.3353760074619A271.6312529141411 271.6312529141411 0 0 0 1322.187437554104 187.8372077532821A153.66682208752414 153.66682208752414 0 0 1 1332.378605208803 151.8017717977768V117.4315593152617z" />
    <glyph glyph-name="persons-1"
      unicode="&#x70;&#x65;&#x72;&#x73;&#x6F;&#x6E;&#x73;"
      horiz-adv-x="1332.1787783920602" d="M48.6911343502143 1.5e-12C34.8364750549369 1.5e-12 17.7845866915185 1.5e-12 -1.55e-11 0.4662625724387V25.4446146672898A284.6199960034636 284.6199960034636 0 0 1 21.2482515153379 84.5933524278973A411.77646040098585 411.77646040098585 0 0 0 107.8398721108218 253.0473589555733A522.3472990075268 522.3472990075268 0 0 0 299.8068340771177 400.586158662494A320.5888230200493 320.5888230200493 0 0 0 171.7178445347211 617.3316459068822A330.77999067474855 330.77999067474855 0 0 0 244.5214147738472 879.2379937387611L265.4366215946025 900.752681009793L267.035236128673 902.2180776660242L268.5006327849044 903.5502564444162L288.1502697661872 920.868580563513A309.398521281556 309.398521281556 0 0 0 496.5030307067053 1000.0000000000014A344.5014320921868 344.5014320921868 0 0 0 685.8722440551367 941.983614201027A323.31978951575303 323.31978951575303 0 0 0 811.2302671018296 784.3202557783268A344.9010857257044 344.9010857257044 0 0 0 813.2285352694175 558.5825617797923A290.6814094451475 290.6814094451475 0 0 0 702.5244787850373 404.1164324252329A139.87877173116632 139.87877173116632 0 0 1 745.6204622660205 374.3422367281705A424.2323319789515 424.2323319789515 0 0 0 896.8227536135192 245.387330979819C931.3261839738736 201.1589955372027 1004.1963631519192 78.1322853526959 996.0700726037278 0.5328715113584H893.9585692399764A178.64517418237526 178.64517418237526 0 0 0 879.3712116165834 39.8987544128437A369.0801305535203 369.0801305535203 0 0 1 746.1533337773774 245.1875041630603A386.3318457336975 386.3318457336975 0 0 1 502.43122627055 333.5109571704538A427.362952108173 427.362952108173 0 0 1 443.2158795710229 329.2479850795993A394.79118097648706 394.79118097648706 0 0 1 195.2974089122605 189.3692133484329A280.8232864850463 280.8232864850463 0 0 1 119.0301738493151 32.971424765205C116.032771597961 4.995670418971 115.3666822087505 1.5e-12 48.6911343502143 1.5e-12zM499.567041897007 899.6869379870793A233.13128621861054 233.13128621861054 0 0 1 266.4357556783965 666.5556517684688A233.13128621861054 233.13128621861054 0 0 1 499.567041897007 433.4243655498583A233.13128621861054 233.13128621861054 0 0 1 732.6983281156175 666.5556517684688A233.13128621861054 233.13128621861054 0 0 1 499.5670418970225 899.6869379870797zM1332.1787783920445 117.1651235595832H1332.1787783920445L1221.5413308465838 117.4981682541813A216.01278891627254 216.01278891627254 0 0 1 1057.083860654084 328.8483314460816A115.56650902551124 115.56650902551124 0 0 0 1010.457603410362 354.0931192966111C978.4853127289526 397.7219742889511 1014.7205755012166 428.4953040698076 1038.6997935122736 448.8776393792063A115.63311796443082 115.63311796443082 0 0 1 1053.9532405248626 463.2651701858404A220.40897888496636 220.40897888496636 0 0 1 1035.1695197495346 776.3271831079745A214.61400119896086 214.61400119896086 0 0 1 978.6851395457112 812.0961833078013A311.2635715713049 311.2635715713049 0 0 1 943.5156197961608 824.2856191300887A167.38826350496234 167.38826350496234 0 0 0 915.9395190834452 834.0771331512703L855.5918204222847 944.7811896356505C864.9170718710293 945.380670085927 873.3097981748992 945.5804969026858 881.1696529674124 945.5804969026858A332.57843202557785 332.57843202557785 0 0 0 1175.3813361752989 779.0581496036782C1254.3129287950283 640.3117298341451 1226.203956570956 538.4666622260722 1151.0690734696439 409.5783654166404A275.0283087990408 275.0283087990408 0 0 0 1270.9651635249293 305.3353760074619A271.6312529141411 271.6312529141411 0 0 0 1322.187437554104 187.8372077532821A153.66682208752414 153.66682208752414 0 0 1 1332.378605208803 151.8017717977768V117.4315593152617z" />
    <glyph glyph-name="company"
      unicode="&#xF102;"
      horiz-adv-x="1699.2140668709205" d="M415.4122818702598 0.0666045024658C402.6908218995657 0.0666045024658 388.1044358598695 0.0666045024658 367.1906220860584 0.5328360197163V25.5761289463181A287.8646596509924 287.8646596509924 0 0 1 388.3708538697269 84.6543226322114A412.9479152790729 412.9479152790729 0 0 0 474.9567070734034 253.0971093645944A523.9776208871721 523.9776208871721 0 0 0 666.910883175708 400.6926868256309A320.56747036099637 320.56747036099637 0 0 0 538.8970294391953 617.4903423471442A330.69135473558015 330.69135473558015 0 0 0 611.6291461302837 879.3126415345693L632.5429599040948 900.8258958305596L634.0748634607752 902.2245903823114L635.6067670174557 903.6898894365274L655.5881177567657 921.0070600772626A309.3779139469828 309.3779139469828 0 0 0 863.9270014653043 1000.1332090049302A344.47848674570406 344.47848674570406 0 0 0 1053.2169974690341 942.1206873584669A323.1650459571067 323.1650459571067 0 0 0 1178.5666711069723 784.4678300253112A345.0113227654189 345.0113227654189 0 0 0 1180.698015185832 558.6785666711085A290.329026242174 290.329026242174 0 0 0 1069.868123085126 404.2227254562424A140.40229119488478 140.40229119488478 0 0 1 1113.0278406820355 374.3839083522062A423.47142666844275 423.47142666844275 0 0 0 1264.2200612761476 245.4375915811924C1298.7211935526896 201.2122019448531 1371.5199147462422 78.193685893168 1363.3941654455894 0.5994405221808H1261.2894631677154A179.16611162914614 179.16611162914614 0 0 0 1246.8362861329479 39.696283468764A369.25536166244837 369.25536166244837 0 0 1 1113.6272812042148 245.1711735713349A385.77327827361125 385.77327827361125 0 0 1 870.1212201944904 333.4887438390851A427.8007193286266 427.8007193286266 0 0 1 810.8432130012042 329.2260556813656A394.69828160383645 394.69828160383645 0 0 1 562.8746503263673 189.3566005061957A280.8711868922339 280.8711868922339 0 0 1 486.6790995071319 32.9692287198629C483.1490608765089 5.0619421872925 482.5496203543287 0.0666045024658 415.4122818702598 0.0666045024658zM866.6577860663434 899.6936192886653A233.1157586252831 233.1157586252831 0 0 1 633.5420274410603 666.5778606633822A233.1157586252831 233.1157586252831 0 0 1 866.6577860663434 433.4621020380992A233.1157586252831 233.1157586252831 0 0 1 1099.7735446916263 666.5778606633822A233.1157586252831 233.1157586252831 0 0 1 866.724390568797 899.6936192886657zM0.0666045024698 105.7013454109513H0.0666045024698V141.0017317170655A156.18755827893966 156.18755827893966 0 0 1 10.5235113893753 177.8340215798603A280.6713733848408 280.6713733848408 0 0 0 63.2742773411537 298.8544025576145A280.9377913946983 280.9377913946983 0 0 0 186.3593978953032 405.9544425203159C109.0981750366379 538.4974024244054 80.2584254695672 643.1996802983897 161.3161049687013 785.6001065672054A342.08072465698683 342.08072465698683 0 0 0 463.8337551618544 956.9068869055563C472.4257359797577 956.9068869055563 481.217530305054 956.9068869055563 490.0093246303504 956.0410283735196L428.0671373384895 842.213933661917A173.17170640735316 173.17170640735316 0 0 0 399.4272012788119 832.023444784869A324.0309044891435 324.0309044891435 0 0 1 363.5273744505183 819.5684028240324A220.19448514719593 220.19448514719593 0 0 1 305.4482483015907 782.802717463702A226.4553083788464 226.4553083788464 0 0 1 286.1995470893887 460.9697615558828A113.2276541894232 113.2276541894232 0 0 1 301.5185826561931 446.5165845211152L301.8516051685149 446.5165845211152C326.4952710803306 425.602770747304 363.7271879579115 394.0322365791942 330.75795923805 349.2074064206755A118.35620087917943 118.35620087917943 0 0 0 282.8693219661704 323.1650459571082A221.99280671373387 221.99280671373387 0 0 1 113.9603037165367 105.9677634208086zM1699.2140668709258 117.2239243372867H1699.2140668709258L1588.6505927800772 117.5569468496086A215.99840149194088 215.99840149194088 0 0 1 1424.2706806980204 328.8930331690438A115.35899826828295 115.35899826828295 0 0 0 1377.6475289729638 354.2027441055032C1345.6773677900678 397.8286932196632 1381.9102171306833 428.5999733582005 1405.9544425203196 448.9143466098325A116.49127481017717 116.49127481017717 0 0 1 1421.2068735846597 463.3009191421356A220.39429865458908 220.39429865458908 0 0 1 1402.2911948847795 776.3420807246586A215.3323564672972 215.3323564672972 0 0 1 1345.9437857999253 812.1086985480234A314.2400426268816 314.2400426268816 0 0 1 1310.77660849874 824.3639270014669A171.17357133342213 171.17357133342213 0 0 0 1283.0691354735634 834.1547888637288L1222.7920607433116 944.851471959506C1231.9168775809298 945.4509124816854 1240.4422538963688 945.6507259890784 1248.2349806846996 945.6507259890784A332.3564672971893 332.3564672971893 0 0 0 1542.4270680698069 779.139469828162C1621.353403490081 640.4022911948864 1593.312907952583 538.5640069268698 1518.2496336752417 409.5510856533918A273.078460103903 273.078460103903 0 0 0 1638.1377381111017 305.3150392966581A270.9471160250432 270.9471160250432 0 0 0 1689.4898095111284 187.6914879445866A154.65565472225924 154.65565472225924 0 0 1 1699.5470893832476 151.7250566138287V117.3571333422154z" />
    <glyph glyph-name="company-1"
      unicode="&#x63;&#x6F;&#x6D;&#x70;&#x61;&#x6E;&#x79;"
      horiz-adv-x="1699.2140668709205" d="M415.4122818702598 0.0666045024658C402.6908218995657 0.0666045024658 388.1044358598695 0.0666045024658 367.1906220860584 0.5328360197163V25.5761289463181A287.8646596509924 287.8646596509924 0 0 1 388.3708538697269 84.6543226322114A412.9479152790729 412.9479152790729 0 0 0 474.9567070734034 253.0971093645944A523.9776208871721 523.9776208871721 0 0 0 666.910883175708 400.6926868256309A320.56747036099637 320.56747036099637 0 0 0 538.8970294391953 617.4903423471442A330.69135473558015 330.69135473558015 0 0 0 611.6291461302837 879.3126415345693L632.5429599040948 900.8258958305596L634.0748634607752 902.2245903823114L635.6067670174557 903.6898894365274L655.5881177567657 921.0070600772626A309.3779139469828 309.3779139469828 0 0 0 863.9270014653043 1000.1332090049302A344.47848674570406 344.47848674570406 0 0 0 1053.2169974690341 942.1206873584669A323.1650459571067 323.1650459571067 0 0 0 1178.5666711069723 784.4678300253112A345.0113227654189 345.0113227654189 0 0 0 1180.698015185832 558.6785666711085A290.329026242174 290.329026242174 0 0 0 1069.868123085126 404.2227254562424A140.40229119488478 140.40229119488478 0 0 1 1113.0278406820355 374.3839083522062A423.47142666844275 423.47142666844275 0 0 0 1264.2200612761476 245.4375915811924C1298.7211935526896 201.2122019448531 1371.5199147462422 78.193685893168 1363.3941654455894 0.5994405221808H1261.2894631677154A179.16611162914614 179.16611162914614 0 0 0 1246.8362861329479 39.696283468764A369.25536166244837 369.25536166244837 0 0 1 1113.6272812042148 245.1711735713349A385.77327827361125 385.77327827361125 0 0 1 870.1212201944904 333.4887438390851A427.8007193286266 427.8007193286266 0 0 1 810.8432130012042 329.2260556813656A394.69828160383645 394.69828160383645 0 0 1 562.8746503263673 189.3566005061957A280.8711868922339 280.8711868922339 0 0 1 486.6790995071319 32.9692287198629C483.1490608765089 5.0619421872925 482.5496203543287 0.0666045024658 415.4122818702598 0.0666045024658zM866.6577860663434 899.6936192886653A233.1157586252831 233.1157586252831 0 0 1 633.5420274410603 666.5778606633822A233.1157586252831 233.1157586252831 0 0 1 866.6577860663434 433.4621020380992A233.1157586252831 233.1157586252831 0 0 1 1099.7735446916263 666.5778606633822A233.1157586252831 233.1157586252831 0 0 1 866.724390568797 899.6936192886657zM0.0666045024698 105.7013454109513H0.0666045024698V141.0017317170655A156.18755827893966 156.18755827893966 0 0 1 10.5235113893753 177.8340215798603A280.6713733848408 280.6713733848408 0 0 0 63.2742773411537 298.8544025576145A280.9377913946983 280.9377913946983 0 0 0 186.3593978953032 405.9544425203159C109.0981750366379 538.4974024244054 80.2584254695672 643.1996802983897 161.3161049687013 785.6001065672054A342.08072465698683 342.08072465698683 0 0 0 463.8337551618544 956.9068869055563C472.4257359797577 956.9068869055563 481.217530305054 956.9068869055563 490.0093246303504 956.0410283735196L428.0671373384895 842.213933661917A173.17170640735316 173.17170640735316 0 0 0 399.4272012788119 832.023444784869A324.0309044891435 324.0309044891435 0 0 1 363.5273744505183 819.5684028240324A220.19448514719593 220.19448514719593 0 0 1 305.4482483015907 782.802717463702A226.4553083788464 226.4553083788464 0 0 1 286.1995470893887 460.9697615558828A113.2276541894232 113.2276541894232 0 0 1 301.5185826561931 446.5165845211152L301.8516051685149 446.5165845211152C326.4952710803306 425.602770747304 363.7271879579115 394.0322365791942 330.75795923805 349.2074064206755A118.35620087917943 118.35620087917943 0 0 0 282.8693219661704 323.1650459571082A221.99280671373387 221.99280671373387 0 0 1 113.9603037165367 105.9677634208086zM1699.2140668709258 117.2239243372867H1699.2140668709258L1588.6505927800772 117.5569468496086A215.99840149194088 215.99840149194088 0 0 1 1424.2706806980204 328.8930331690438A115.35899826828295 115.35899826828295 0 0 0 1377.6475289729638 354.2027441055032C1345.6773677900678 397.8286932196632 1381.9102171306833 428.5999733582005 1405.9544425203196 448.9143466098325A116.49127481017717 116.49127481017717 0 0 1 1421.2068735846597 463.3009191421356A220.39429865458908 220.39429865458908 0 0 1 1402.2911948847795 776.3420807246586A215.3323564672972 215.3323564672972 0 0 1 1345.9437857999253 812.1086985480234A314.2400426268816 314.2400426268816 0 0 1 1310.77660849874 824.3639270014669A171.17357133342213 171.17357133342213 0 0 0 1283.0691354735634 834.1547888637288L1222.7920607433116 944.851471959506C1231.9168775809298 945.4509124816854 1240.4422538963688 945.6507259890784 1248.2349806846996 945.6507259890784A332.3564672971893 332.3564672971893 0 0 0 1542.4270680698069 779.139469828162C1621.353403490081 640.4022911948864 1593.312907952583 538.5640069268698 1518.2496336752417 409.5510856533918A273.078460103903 273.078460103903 0 0 0 1638.1377381111017 305.3150392966581A270.9471160250432 270.9471160250432 0 0 0 1689.4898095111284 187.6914879445866A154.65565472225924 154.65565472225924 0 0 1 1699.5470893832476 151.7250566138287V117.3571333422154z" />
    <glyph glyph-name="person"
      unicode="&#xF103;"
      horiz-adv-x="996.6029441151002" d="M48.2248717778032 1.5e-12H48.2248717778032C34.9030839938826 1.5e-12 18.5172850196603 1.5e-12 1.07e-11 0.4662625724387V25.5112236062095A286.4184373542929 286.4184373542929 0 0 1 21.248251515364 84.5933524278973A412.1761140345034 412.1761140345034 0 0 0 107.8398721108479 253.0473589555733A522.813561579964 522.813561579964 0 0 0 299.8068340771438 400.586158662494A320.5888230200493 320.5888230200493 0 0 0 171.7178445347472 617.3316459068822A330.77999067474855 330.77999067474855 0 0 0 244.5214147738733 879.2379937387611L265.4366215946287 900.752681009793L266.9686271897795 902.1514687271045L268.5006327849304 903.5502564444162L288.1502697662133 920.868580563513A309.46513022047554 309.46513022047554 0 0 0 496.5030307067314 1000.0000000000014A344.5014320921868 344.5014320921868 0 0 0 685.8722440551628 941.983614201027A323.2531805768334 323.2531805768334 0 0 0 811.2302671018557 784.3202557783268A344.967694664624 344.967694664624 0 0 0 813.2285352694437 558.5159528408726A290.34836475054954 290.34836475054954 0 0 0 702.5244787850636 404.1164324252328A139.87877173116632 139.87877173116632 0 0 1 745.5538533271272 374.3422367281703A423.76606940651436 423.76606940651436 0 0 0 896.756144674626 245.3873309798189C931.2595750349803 201.1589955372026 1004.129754213026 78.1322853526957 996.0034636648344 0.5328715113583H893.8919603010831A178.64517418237526 178.64517418237526 0 0 0 879.3046026776901 39.8987544128436A369.2799573702791 369.2799573702791 0 0 1 746.0867248384841 245.18750416306A386.3318457336975 386.3318457336975 0 0 1 502.3646173316567 333.5109571704536A427.76260574169055 427.76260574169055 0 0 1 443.1492706321296 329.2479850795991A394.85778991540667 394.85778991540667 0 0 1 195.2307999733672 189.3692133484327A280.1571970958503 280.1571970958503 0 0 1 118.9635649104218 32.9048158262852C115.9661626590279 4.995670418971 115.3666822087505 1.5e-12 48.2248717778032 1.5e-12zM499.5004329581136 899.6869379870793A233.13128621861054 233.13128621861054 0 0 1 266.3691467395031 666.5556517684688A233.13128621861054 233.13128621861054 0 0 1 499.5004329581136 433.4243655498583A233.13128621861054 233.13128621861054 0 0 1 732.6317191767241 666.5556517684688A233.13128621861054 233.13128621861054 0 0 1 499.5670418970225 899.6869379870797z" />
    <glyph glyph-name="person-1"
      unicode="&#x70;&#x65;&#x72;&#x73;&#x6F;&#x6E;"
      horiz-adv-x="996.6029441151002" d="M48.2248717778032 1.5e-12H48.2248717778032C34.9030839938826 1.5e-12 18.5172850196603 1.5e-12 1.07e-11 0.4662625724387V25.5112236062095A286.4184373542929 286.4184373542929 0 0 1 21.248251515364 84.5933524278973A412.1761140345034 412.1761140345034 0 0 0 107.8398721108479 253.0473589555733A522.813561579964 522.813561579964 0 0 0 299.8068340771438 400.586158662494A320.5888230200493 320.5888230200493 0 0 0 171.7178445347472 617.3316459068822A330.77999067474855 330.77999067474855 0 0 0 244.5214147738733 879.2379937387611L265.4366215946287 900.752681009793L266.9686271897795 902.1514687271045L268.5006327849304 903.5502564444162L288.1502697662133 920.868580563513A309.46513022047554 309.46513022047554 0 0 0 496.5030307067314 1000.0000000000014A344.5014320921868 344.5014320921868 0 0 0 685.8722440551628 941.983614201027A323.2531805768334 323.2531805768334 0 0 0 811.2302671018557 784.3202557783268A344.967694664624 344.967694664624 0 0 0 813.2285352694437 558.5159528408726A290.34836475054954 290.34836475054954 0 0 0 702.5244787850636 404.1164324252328A139.87877173116632 139.87877173116632 0 0 1 745.5538533271272 374.3422367281703A423.76606940651436 423.76606940651436 0 0 0 896.756144674626 245.3873309798189C931.2595750349803 201.1589955372026 1004.129754213026 78.1322853526957 996.0034636648344 0.5328715113583H893.8919603010831A178.64517418237526 178.64517418237526 0 0 0 879.3046026776901 39.8987544128436A369.2799573702791 369.2799573702791 0 0 1 746.0867248384841 245.18750416306A386.3318457336975 386.3318457336975 0 0 1 502.3646173316567 333.5109571704536A427.76260574169055 427.76260574169055 0 0 1 443.1492706321297 329.2479850795991A394.85778991540667 394.85778991540667 0 0 1 195.2307999733672 189.3692133484327A280.1571970958503 280.1571970958503 0 0 1 118.9635649104218 32.9048158262852C115.9661626590279 4.995670418971 115.3666822087505 1.5e-12 48.2248717778032 1.5e-12zM499.5004329581136 899.6869379870793A233.13128621861054 233.13128621861054 0 0 1 266.3691467395031 666.5556517684688A233.13128621861054 233.13128621861054 0 0 1 499.5004329581136 433.4243655498583A233.13128621861054 233.13128621861054 0 0 1 732.6317191767241 666.5556517684688A233.13128621861054 233.13128621861054 0 0 1 499.5670418970225 899.6869379870797z" />
    <glyph glyph-name="twitter"
      unicode="&#xF104;"
      horiz-adv-x="1000" d="M1000 799.3805C963.205 782.315 923.67 770.779 882.17 765.592C924.525 792.149 957.055 834.2004999999999 972.3750000000002 884.311C932.73 859.7175 888.8249999999999 841.861 842.0899999999999 832.2395C804.67 873.9435 751.3499999999999 900 692.34 900C579.035 900 487.1785 803.928 487.1785 685.4235C487.1785 668.605 488.9929999999999 652.2275 492.491 636.52C321.9835 645.472 170.81 730.899 69.623 860.7265C51.963 829.034 41.84365 792.1735 41.84365 752.847C41.84365 678.398 78.0625 612.717 133.113 574.2365C99.482 575.352 67.8475 585.004 40.18935 601.077C40.16985 600.1825 40.16985 599.2835 40.16985 598.3785C40.16985 494.41 110.8905 407.6850000000001 204.742 387.9650000000001C187.529 383.0650000000001 169.402 380.4350000000001 150.691 380.4350000000001C137.4705 380.4350000000001 124.619 381.785 112.0895 384.29C138.199 299.045 213.9645 236.995 303.7415000000001 235.27C233.527 177.71 145.064 143.4100000000001 48.9413 143.4100000000001C32.3808 143.4100000000001 16.05075 144.4250000000001 0 146.415C90.793 85.525 198.6345 50 314.4935 50C691.86 50 898.22 376.98 898.22 660.5440000000001C898.22 669.847 898.015 679.101 897.625 688.306C937.715 718.558 972.495 756.3505 1000 799.3805z" />
    <glyph glyph-name="twitter-1"
      unicode="&#x74;&#x77;&#x69;&#x74;&#x74;&#x65;&#x72;"
      horiz-adv-x="1000" d="M1000 799.3805C963.205 782.315 923.67 770.779 882.17 765.592C924.525 792.149 957.055 834.2004999999999 972.3750000000002 884.311C932.73 859.7175 888.8249999999999 841.861 842.0899999999999 832.2395C804.67 873.9435 751.3499999999999 900 692.34 900C579.035 900 487.1785 803.928 487.1785 685.4235C487.1785 668.605 488.9929999999999 652.2275 492.491 636.52C321.9835 645.472 170.81 730.899 69.623 860.7265C51.963 829.034 41.84365 792.1735 41.84365 752.847C41.84365 678.398 78.0625 612.717 133.113 574.2365C99.482 575.352 67.8475 585.004 40.18935 601.077C40.16985 600.1825 40.16985 599.2835 40.16985 598.3785C40.16985 494.41 110.8905 407.6850000000001 204.742 387.9650000000001C187.529 383.0650000000001 169.402 380.4350000000001 150.691 380.4350000000001C137.4705 380.4350000000001 124.619 381.7850000000001 112.0895 384.29C138.199 299.045 213.9645 236.995 303.7415000000001 235.27C233.527 177.71 145.064 143.4100000000001 48.9413 143.4100000000001C32.3808 143.4100000000001 16.05075 144.4250000000001 0 146.415C90.793 85.525 198.6345 50 314.4935 50C691.86 50 898.22 376.98 898.22 660.5440000000001C898.22 669.847 898.015 679.101 897.625 688.306C937.715 718.558 972.495 756.3505 1000 799.3805z" />
    <glyph glyph-name="burger"
      unicode="&#xF105;"
      horiz-adv-x="1000" d="M0 1000H1000V833.357H0V1000zM-0.001335145 583.357H733.355V416.7150000000001H-0.001335145V583.357zM0.00166893 166.645H533.36V0H0.00166893V166.645z" />
    <glyph glyph-name="burger-1"
      unicode="&#x62;&#x75;&#x72;&#x67;&#x65;&#x72;"
      horiz-adv-x="1000" d="M0 1000H1000V833.357H0V1000zM-0.001335145 583.357H733.355V416.7150000000001H-0.001335145V583.357zM0.00166893 166.645H533.36V0H0.00166893V166.645z" />
    <glyph glyph-name="visitors"
      unicode="&#xF106;"
      horiz-adv-x="1000" d="M116.3777307087886 340.141082738587C188.5340770509691 269.1587004818015 313.487749984989 185.2689247358582 500.0383039428215 185.2689247358582S811.5425308346739 269.7446472828012 883.6988771768545 340.141082738587C961.7209029792186 416.4031976545564 995.1592098207168 493.2533298549213 996.9191207071113 496.187204826711C1001.0248892809004 504.9867592586842 1001.0248892809004 515.546224577052 996.9191207071113 524.3457790090254C995.7451566217164 527.279653980815 964.0667606666128 599.4360003229955 886.6306816652484 671.0043293807806C815.6482994084628 736.7069789783822 690.1066091900476 814.731075264142 496.5164116866364 814.731075264142S179.7324521356001 736.1210321773825 109.9219634808138 670.4183825797809C33.6598485648444 598.8479830386 3.7413634961354 526.6916366964196 2.5673994107404 523.1718149236302C-0.9524223620489 514.372260491657 -0.9524223620489 504.3987419742887 3.15334621174 496.1872048267109C4.3314512639266 493.2533298549213 38.3557049064245 416.4031976545564 116.3777307087886 340.141082738587zM494.7585712836376 741.986711637566C589.2078123479488 741.986711637566 666.055874064918 665.1365794372011 666.055874064918 570.6894088562856S589.2057418645531 399.3921060750054 494.7585712836377 399.3921060750054S323.4612685023573 476.2422382753701 323.4612685023573 570.6894088562856C323.4612685023572 665.138649920597 400.3114007027221 741.986711637566 494.7585712836376 741.986711637566zM295.8886411210425 707.9624579950681C268.9040310241232 669.2444184943859 253.0648330465714 621.7268245617304 253.0648330465714 570.6894088562856C253.0648330465714 437.5221282912921 361.5933612020399 328.9956706192195 494.7585712836376 328.9956706192195S736.4523095207038 437.524198774688 736.4523095207038 570.6894088562856C736.4523095207038 622.31277136273 720.0271647421524 669.8303652953855 692.4545373608377 709.1364220804631C835.5932659598036 653.9932378012295 903.6438437281952 548.3985846175508 924.1768275639316 509.6805451168685C911.2715045581695 486.2157567927384 881.3530194894603 436.350234689293 831.4874973860149 387.6607471546382C740.5580780944929 299.0792560339062 629.0977454506304 254.4934665896447 499.4502866584263 254.4934665896447S258.3424952223598 300.2511496359056 167.4130759308378 388.2466939556378C116.9616070263926 437.5241987746879 87.0431219576836 487.3876503947375 74.1377989519215 510.8545092022633C93.4988891856582 548.3965141341548 156.8556810958654 652.2312564314391 295.8886411210425 707.9624579950681z" />
    <glyph glyph-name="visitors-1"
      unicode="&#x76;&#x69;&#x73;&#x69;&#x74;&#x6F;&#x72;&#x73;"
      horiz-adv-x="1000" d="M116.3777307087886 340.141082738587C188.5340770509691 269.1587004818015 313.487749984989 185.2689247358582 500.0383039428215 185.2689247358582S811.5425308346739 269.7446472828012 883.6988771768545 340.141082738587C961.7209029792186 416.4031976545564 995.1592098207168 493.2533298549213 996.9191207071113 496.187204826711C1001.0248892809004 504.9867592586842 1001.0248892809004 515.546224577052 996.9191207071113 524.3457790090254C995.7451566217164 527.279653980815 964.0667606666128 599.4360003229955 886.6306816652484 671.0043293807806C815.6482994084628 736.7069789783822 690.1066091900476 814.731075264142 496.5164116866364 814.731075264142S179.7324521356001 736.1210321773825 109.9219634808138 670.4183825797809C33.6598485648444 598.8479830386 3.7413634961354 526.6916366964196 2.5673994107404 523.1718149236302C-0.9524223620489 514.372260491657 -0.9524223620489 504.3987419742887 3.15334621174 496.1872048267109C4.3314512639266 493.2533298549213 38.3557049064245 416.4031976545564 116.3777307087886 340.141082738587zM494.7585712836376 741.986711637566C589.2078123479488 741.986711637566 666.055874064918 665.1365794372011 666.055874064918 570.6894088562856S589.2057418645531 399.3921060750054 494.7585712836377 399.3921060750054S323.4612685023573 476.2422382753701 323.4612685023573 570.6894088562856C323.4612685023572 665.138649920597 400.3114007027221 741.986711637566 494.7585712836376 741.986711637566zM295.8886411210425 707.9624579950681C268.9040310241232 669.2444184943859 253.0648330465714 621.7268245617304 253.0648330465714 570.6894088562856C253.0648330465714 437.5221282912921 361.5933612020399 328.9956706192195 494.7585712836376 328.9956706192195S736.4523095207038 437.524198774688 736.4523095207038 570.6894088562856C736.4523095207038 622.31277136273 720.0271647421524 669.8303652953855 692.4545373608377 709.1364220804631C835.5932659598036 653.9932378012295 903.6438437281952 548.3985846175508 924.1768275639316 509.6805451168685C911.2715045581695 486.2157567927384 881.3530194894603 436.350234689293 831.4874973860149 387.6607471546382C740.5580780944929 299.0792560339062 629.0977454506304 254.4934665896447 499.4502866584263 254.4934665896447S258.3424952223598 300.2511496359056 167.4130759308378 388.2466939556378C116.9616070263926 437.5241987746879 87.0431219576836 487.3876503947375 74.1377989519215 510.8545092022633C93.4988891856582 548.3965141341548 156.8556810958654 652.2312564314391 295.8886411210425 707.9624579950681z" />
    <glyph glyph-name="info"
      unicode="&#xF107;"
      horiz-adv-x="1000" d="M853.5500000000001 853.55A500 500 0 1 1 146.45 146.4499999999999A500 500 0 1 1 853.5500000000001 853.55zM500 80.8A419.2 419.2 0 1 0 919.2 500A419.7 419.7 0 0 0 500 80.8zM500 540.4A40.400000000000006 40.400000000000006 0 0 1 459.6 500V316.15A40.400000000000006 40.400000000000006 0 1 1 540.4 316.15V500A40.400000000000006 40.400000000000006 0 0 1 500 540.4zM528.55 712.4000000000001A40.400000000000006 40.400000000000006 0 1 1 540.4 683.85A40.699999999999996 40.699999999999996 0 0 1 528.55 712.4000000000001z" />
    <glyph glyph-name="info-1"
      unicode="&#x69;&#x6E;&#x66;&#x6F;"
      horiz-adv-x="1000" d="M853.5500000000001 853.55A500 500 0 1 1 146.45 146.4499999999999A500 500 0 1 1 853.5500000000001 853.55zM500 80.8A419.2 419.2 0 1 0 919.2 500A419.7 419.7 0 0 0 500 80.8zM500 540.4A40.400000000000006 40.400000000000006 0 0 1 459.6 500V316.15A40.400000000000006 40.400000000000006 0 1 1 540.4 316.15V500A40.400000000000006 40.400000000000006 0 0 1 500 540.4zM528.55 712.4000000000001A40.400000000000006 40.400000000000006 0 1 1 540.4 683.85A40.699999999999996 40.699999999999996 0 0 1 528.55 712.4000000000001z" />
    <glyph glyph-name="instagram"
      unicode="&#xF108;"
      horiz-adv-x="1000" d="M500 909.875C633.5 909.875 649.335 909.375 702.085 906.9585C837.585 900.7915 900.8749999999998 836.5 907.04 702C909.46 649.2915 909.915 633.4585 909.915 499.96C909.915 366.4150000000001 909.415 350.625 907.04 297.915C900.835 163.5400000000001 837.71 99.1250000000001 702.085 92.96C649.335 90.54 633.5849999999999 90.04 500 90.04C366.5 90.04 350.6665 90.54 297.9585 92.96C162.125 99.165 99.1665 163.7499999999999 93 297.9599999999999C90.5835 350.665 90.0835 366.4600000000001 90.0835 500C90.0835 633.5 90.625 649.2915 93 702.0415C99.2085 836.5 162.3335 900.8335 297.9585 907C350.7085 909.375 366.5 909.875 500 909.875zM500 1000C364.2085 1000 347.2085 999.416665 293.875 997C112.2915 988.66665 11.375 887.9165 3.041665 706.1665C0.583335 652.7915 0 635.7915 0 500C0 364.2100000000001 0.583335 347.1650000000001 3 293.8350000000001C11.33335 112.25 112.0835 11.335 293.8335 2.9999999999999C347.2085 0.585 364.2085 0 500 0C635.79 0 652.8349999999999 0.585 706.165 2.9999999999999C887.585 11.335 988.7499999999998 112.085 996.96 293.8350000000001C999.415 347.1650000000001 1000 364.2100000000001 1000 500C1000 635.7915 999.415 652.7915 997.0000000000002 706.125C988.835 887.5415 887.96 988.625 706.21 996.958335C652.8349999999999 999.416665 635.79 1000 500 1000V1000zM500 756.75C358.2085 756.75 243.25 641.7915 243.25 500C243.25 358.2099999999999 358.2085 243.2100000000001 500 243.2100000000001C641.7900000000001 243.2100000000001 756.75 358.165 756.75 500C756.75 641.7915 641.7900000000001 756.75 500 756.75zM500 333.3350000000001C407.9585 333.3350000000001 333.3335 407.9150000000001 333.3335 500C333.3335 592.0415 407.9585 666.6665 500 666.6665C592.04 666.6665 666.665 592.0415 666.665 500C666.665 407.9150000000001 592.04 333.3350000000001 500 333.3350000000001zM766.915 826.875C733.75 826.875 706.875 800 706.875 766.875C706.875 733.75 733.75 706.875 766.915 706.875C800.0400000000001 706.875 826.8750000000001 733.75 826.8750000000001 766.875C826.8750000000001 800 800.0400000000001 826.875 766.915 826.875z" />
    <glyph glyph-name="instagram-1"
      unicode="&#x69;&#x6E;&#x73;&#x74;&#x61;&#x67;&#x72;&#x61;&#x6D;"
      horiz-adv-x="1000" d="M500 909.875C633.5 909.875 649.335 909.375 702.085 906.9585C837.585 900.7915 900.8749999999998 836.5 907.04 702C909.46 649.2915 909.915 633.4585 909.915 499.96C909.915 366.4150000000001 909.415 350.625 907.04 297.915C900.835 163.5400000000001 837.71 99.1250000000001 702.085 92.96C649.335 90.54 633.5849999999999 90.04 500 90.04C366.5 90.04 350.6665 90.54 297.9585 92.96C162.125 99.165 99.1665 163.7499999999999 93 297.9599999999999C90.5835 350.665 90.0835 366.4600000000001 90.0835 500C90.0835 633.5 90.625 649.2915 93 702.0415C99.2085 836.5 162.3335 900.8335 297.9585 907C350.7085 909.375 366.5 909.875 500 909.875zM500 1000C364.2085 1000 347.2085 999.416665 293.875 997C112.2915 988.66665 11.375 887.9165 3.041665 706.1665C0.583335 652.7915 0 635.7915 0 500C0 364.2100000000001 0.583335 347.1650000000001 3 293.8350000000001C11.33335 112.25 112.0835 11.335 293.8335 2.9999999999999C347.2085 0.585 364.2085 0 500 0C635.79 0 652.8349999999999 0.585 706.165 2.9999999999999C887.585 11.335 988.7499999999998 112.085 996.96 293.8350000000001C999.415 347.1650000000001 1000 364.2100000000001 1000 500C1000 635.7915 999.415 652.7915 997.0000000000002 706.125C988.835 887.5415 887.96 988.625 706.21 996.958335C652.8349999999999 999.416665 635.79 1000 500 1000V1000zM500 756.75C358.2085 756.75 243.25 641.7915 243.25 500C243.25 358.2099999999999 358.2085 243.2100000000001 500 243.2100000000001C641.7900000000001 243.2100000000001 756.75 358.165 756.75 500C756.75 641.7915 641.7900000000001 756.75 500 756.75zM500 333.3350000000001C407.9585 333.3350000000001 333.3335 407.9150000000001 333.3335 500C333.3335 592.0415 407.9585 666.6665 500 666.6665C592.04 666.6665 666.665 592.0415 666.665 500C666.665 407.9150000000001 592.04 333.3350000000001 500 333.3350000000001zM766.915 826.875C733.75 826.875 706.875 800 706.875 766.875C706.875 733.75 733.75 706.875 766.915 706.875C800.0400000000001 706.875 826.8750000000001 733.75 826.8750000000001 766.875C826.8750000000001 800 800.0400000000001 826.875 766.915 826.875z" />
    <glyph glyph-name="in_progress"
      unicode="&#xF109;"
      horiz-adv-x="996.7" d="M496.7 1000A496.99999999999994 496.99999999999994 0 0 1 440.8 996.7L449.3 920.4A423.00000000000006 423.00000000000006 0 1 0 496.7 77.0500000000001A429.99999999999994 429.99999999999994 0 0 0 449.6 79.85L441.1 3.4500000000002A500 500 0 1 1 496.7 1000zM331.7 971.6A499.7 499.7 0 0 1 230.95 922.9L271.9 857.9A421.75000000000006 421.75000000000006 0 0 0 357.15 899zM143.1 853.55A505.8 505.8 0 0 1 73.6 765.75L138.6 724.8A425.54999999999995 425.54999999999995 0 0 0 197.5 799.15zM698.55 679.2L453.5499999999999 399.2000000000001L289.95 530.05L241.85 470.05L462.95 293.2000000000001L756.3 628.55zM25 664.85A497.8 497.8 0 0 1 0 555.75L76.4 547.25A424 424 0 0 0 97.65 639.5zM76.3 452.4499999999999L-0.1 443.9A498.80000000000007 498.80000000000007 0 0 1 24.9 334.75L97.8 360.4A418.35 418.35 0 0 0 76.3 452.4499999999999zM138.7 274.95L73.7 234A501.6 501.6 0 0 1 143.2 146.25L197.5 200.7000000000001A424 424 0 0 0 138.9 274.95zM272.1 141.9000000000001L231.3 76.8499999999999A498.74999999999994 498.74999999999994 0 0 1 332.1 28.3L357.5 100.85A421.54999999999995 421.54999999999995 0 0 0 272.1 141.9000000000001z" />
    <glyph glyph-name="in_progress-1"
      unicode="&#x69;&#x6E;&#x5F;&#x70;&#x72;&#x6F;&#x67;&#x72;&#x65;&#x73;&#x73;"
      horiz-adv-x="996.7" d="M496.7 1000A496.99999999999994 496.99999999999994 0 0 1 440.8 996.7L449.3 920.4A423.00000000000006 423.00000000000006 0 1 0 496.7 77.0500000000001A429.99999999999994 429.99999999999994 0 0 0 449.6 79.85L441.1 3.4500000000002A500 500 0 1 1 496.7 1000zM331.7 971.6A499.7 499.7 0 0 1 230.95 922.9L271.9 857.9A421.75000000000006 421.75000000000006 0 0 0 357.15 899zM143.1 853.55A505.8 505.8 0 0 1 73.6 765.75L138.6 724.8A425.54999999999995 425.54999999999995 0 0 0 197.5 799.15zM698.55 679.2L453.5499999999999 399.2000000000001L289.95 530.05L241.85 470.05L462.95 293.2000000000001L756.3 628.55zM25 664.85A497.8 497.8 0 0 1 0 555.75L76.4 547.25A424 424 0 0 0 97.65 639.5zM76.3 452.4499999999999L-0.1 443.9A498.80000000000007 498.80000000000007 0 0 1 24.9 334.75L97.8 360.4A418.35 418.35 0 0 0 76.3 452.4499999999999zM138.7 274.95L73.7 234A501.6 501.6 0 0 1 143.2 146.25L197.5 200.7000000000001A424 424 0 0 0 138.9 274.95zM272.1 141.9000000000001L231.3 76.8499999999999A498.74999999999994 498.74999999999994 0 0 1 332.1 28.3L357.5 100.85A421.54999999999995 421.54999999999995 0 0 0 272.1 141.9000000000001z" />
    <glyph glyph-name="facebook"
      unicode="&#xF10A;"
      horiz-adv-x="500" d="M125 666.6665H0V500H125V0H333.3335V500H485.0835L500 666.6665H333.3335V736.125C333.3335 775.9165 341.3335 791.6665 379.7915000000001 791.6665H500V1000H341.3335C191.5 1000 125 934.0415 125 807.7085V666.6665z" />
    <glyph glyph-name="facebook-1"
      unicode="&#x66;&#x61;&#x63;&#x65;&#x62;&#x6F;&#x6F;&#x6B;"
      horiz-adv-x="500" d="M125 666.6665H0V500H125V0H333.3335V500H485.0835L500 666.6665H333.3335V736.125C333.3335 775.9165 341.3335 791.6665 379.7915000000001 791.6665H500V1000H341.3335C191.5 1000 125 934.0415 125 807.7085V666.6665z" />
    <glyph glyph-name="google"
      unicode="&#xF10B;"
      horiz-adv-x="1000" d="M291.6665 541.6750000000001V441.6750000000001H457.0835C450.4165 398.8000000000001 407.0835 315.8400000000001 291.6665 315.8400000000001C192.0835 315.8400000000001 110.8335 398.3 110.8335 500.008C110.8335 601.675 192.0835 684.175 291.6665 684.175C348.3335 684.175 386.25 660.008 407.9165 639.175L487.0835 715.425C436.25 762.925 370.4165000000001 791.675 291.6665 791.675C130.4165 791.675 0 661.258 0 500.008C0 338.76 130.4165 208.34 291.6665 208.34C459.9999999999999 208.34 571.71 326.675 571.71 493.34C571.71 512.508 569.585 527.0915 567.0849999999999 541.6750000000001H291.6665zM291.6665 541.6750000000001L1000 458.34H875V333.3400000000001H791.665V458.34H666.665V541.6750000000001H791.665V666.675H875V541.6750000000001H1000V458.34L291.6665 541.6750000000001z" />
    <glyph glyph-name="google-1"
      unicode="&#x67;&#x6F;&#x6F;&#x67;&#x6C;&#x65;"
      horiz-adv-x="1000" d="M291.6665 541.6750000000001V441.6750000000002H457.0835C450.4165 398.8000000000002 407.0835 315.8400000000001 291.6665 315.8400000000001C192.0835 315.8400000000001 110.8335 398.3 110.8335 500.008C110.8335 601.675 192.0835 684.175 291.6665 684.175C348.3335 684.175 386.25 660.008 407.9165 639.175L487.0835 715.425C436.25 762.925 370.4165000000001 791.675 291.6665 791.675C130.4165 791.675 0 661.258 0 500.008C0 338.76 130.4165 208.34 291.6665 208.34C459.9999999999999 208.34 571.71 326.675 571.71 493.34C571.71 512.508 569.585 527.0915 567.0849999999999 541.6750000000001H291.6665zM291.6665 541.6750000000001L1000 458.34H875V333.3400000000001H791.665V458.34H666.665V541.6750000000001H791.665V666.675H875V541.6750000000001H1000V458.34L291.6665 541.6750000000001z" />
    <glyph glyph-name="news"
      unicode="&#xF10C;"
      horiz-adv-x="999.8" d="M265.35 216.6999999999999H156.55C153.4 216.6999999999999 150.1 216.6999999999999 146.95 217C145.2 217 143.5 217.3 141.95 217.5C135.5 218.1 149.5 216.4 143.15 217.5C139.25 218.1 135.4 219.05 131.6 219.9499999999999S125.15 221.8 122 222.8999999999999C120.45 223.3999999999999 118.85 223.9999999999999 117.3 224.65C125.95 221.3 120.25 223.4499999999999 118.4 224.25A114.05 114.05 0 0 0 99.9 234.75L95.9 237.6C103.25 232.2000000000001 98.45 235.6500000000001 96.8 237C94.25 239.0500000000001 91.8 241.3000000000001 89.55 243.5500000000001S84.95 248.25 82.8 250.7000000000001C81.7 251.9 80.65 253.15 79.65 254.5000000000001C76.3 258.6000000000002 84.15 248.4000000000001 79.65 254.9000000000001A122.59999999999998 122.59999999999998 0 0 0 69.65 271.75C68.95 273.2000000000001 68.2 274.7000000000001 67.5 276.25C64.95 281.85 70.25 269.4 68 275.25C66.55 278.9000000000001 65.45 282.6 64.35 286.35S62.7 292.9 62 296.35L61.1 301.3499999999999C62.65 291.85 61.5 298.1 61.1 300.15A123.5 123.5 0 0 0 60.5 312.5V844.4Q60.5 848.85 60.8 853.3C60.8 855.05 61.1 856.75 61.3 858.3C61.9 864.75 60.2 850.75 61.3 857.1C61.9 861 62.85 864.85 63.75 868.65S65.6 875.1 66.7 878.25C67.2 879.8 67.8 881.4 68.45 882.95C65.1 874.3 67.25 880 68.05 881.85A114.05 114.05 0 0 0 78.4 900.25L81.25 904.25C75.85 896.9 79.3 901.7 80.65 903.35C82.7 905.9 84.95 908.35 87.2 910.6S91.9 915.2 94.35 917.35C95.55 918.45 96.8 919.5 98.15 920.5C102.25 923.85 92.05 916 98.55 920.5A122.59999999999998 122.59999999999998 0 0 0 115.4 930.5L119.9 932.65C125.5 935.2 113.05 929.9 118.9 932.15C122.55 933.6 126.25 934.7 130 935.8S136.55 937.45 140 938.15L145 939.05C135.5 937.5 141.75 938.65 143.8 939.05Q149.9 939.65 156.05 939.65H843.55C846.8 939.65 850.1999999999999 939.65 853.55 939.35C855.3 939.35 856.9999999999999 939.05 858.55 938.85C865 938.25 851 939.95 857.3499999999999 938.85C860.6999999999999 938.35 863.9999999999999 937.65 867.3499999999999 936.8S873.8 935.05 876.9499999999999 933.95C878.4999999999999 933.45 880.0999999999998 932.85 881.65 932.2C886.65 930.35 874.6 935.35 882.05 932.2A117.65 117.65 0 0 0 899.1999999999999 922.5C900.55 921.6 901.85 920.65 903.1999999999998 919.65C908.2 916.1 897.4999999999998 924.25 902.2999999999998 920.35C905.2499999999998 918 908.0999999999998 915.35 910.8499999999998 912.8S915.4499999999998 908.1 917.5999999999998 905.65C918.6999999999998 904.45 919.7499999999998 903.2 920.7499999999998 901.85C924.6499999999997 897.15 916.3499999999996 907.65 920.0499999999998 902.75A126.64999999999999 126.64999999999999 0 0 0 931.0499999999998 884.6C931.7499999999998 883.15 932.4999999999998 881.65 933.1999999999998 880.1C935.7499999999995 874.5 930.4499999999998 886.95 932.6999999999996 881.1C933.8999999999996 878.0500000000001 934.9499999999998 874.75 935.8499999999996 871.6S937.5999999999996 865.05 938.2999999999994 861.6L939.1999999999996 856.6C940.0999999999996 851.2 938.3999999999996 864.55 939.1999999999996 856.1A118.3 118.3 0 0 0 939.8999999999997 843.2V313.2C939.8999999999997 309.7499999999999 939.8999999999997 306.3499999999999 939.6 302.9C939.6 301.15 939.2999999999998 299.45 939.0999999999998 297.9C938.4999999999998 291.4500000000001 940.1999999999998 305.4500000000001 939.0999999999998 299.0999999999999C938.5999999999998 295.75 937.8999999999997 292.4500000000001 937.0499999999998 289.1S935.2999999999998 282.65 934.1999999999998 279.5C933.6999999999998 277.95 933.1 276.3499999999999 932.4499999999998 274.8000000000001C930.6 269.8000000000001 935.5999999999998 281.85 932.4499999999998 274.4000000000001A117.65 117.65 0 0 0 922.7499999999998 257.2500000000001C921.85 255.9000000000001 920.9 254.6 919.9 253.2500000000001C916.35 248.2500000000001 924.4 258.9500000000001 920.6 254.1500000000001C918.2499999999998 251.2000000000002 915.6 248.3500000000002 913.05 245.6000000000002S908.35 241.0000000000001 905.9 238.8500000000002C904.7 237.7500000000001 903.45 236.7000000000002 902.1 235.7000000000002C897.3999999999999 231.8000000000002 907.8999999999997 240.1 902.9999999999998 236.4000000000001A126.64999999999999 126.64999999999999 0 0 0 884.8499999999999 225.4000000000001L880.3499999999999 223.2500000000001C874.75 220.7000000000001 887.2 226.0000000000001 881.3499999999999 223.7500000000001C878.3 222.5500000000001 875 221.5000000000001 871.8499999999999 220.6S865.2999999999998 218.85 861.8499999999999 218.1500000000001C860.1999999999998 217.7500000000001 858.4999999999999 217.5500000000001 856.8499999999998 217.25C851.4499999999998 216.35 864.7999999999998 218.0500000000001 856.3499999999998 217.25A139.59999999999997 139.59999999999997 0 0 0 841.7499999999997 216.65H578C563 216.65 553.9000000000001 205 544.3000000000001 195.4000000000001L510.2 161.3000000000002L427.0000000000001 78.0999999999999L400.15 51.2499999999999A30 30 0 1 1 442.7 8.6999999999999Q509 75 575.15 141.15L599.35 165.3500000000001C592.3 162.4000000000001 585.15 159.4500000000002 578.1 156.5500000000002H841.6999999999999A158.29999999999998 158.29999999999998 0 0 1 977.1000000000003 231.1500000000002A170.70000000000002 170.70000000000002 0 0 1 999.75 323.9000000000002V820.95A259.50000000000006 259.50000000000006 0 0 1 994.75 883.1A150 150 0 0 1 946.2 962A160.00000000000003 160.00000000000003 0 0 1 853.55 999.55C842.2999999999998 1000.35 830.8 999.85 819.55 999.85H158.5A157.4 157.4 0 0 1 38.05 945.95A160.00000000000003 160.00000000000003 0 0 1 0.5 853.3C0.1 847.9 0.2 842.4 0.2 836.95V342.75C0.2 328.55 -0.5 314.0500000000001 0.8 299.9000000000001A156.8 156.8 0 0 1 120.3 160.8000000000001A232.35000000000005 232.35000000000005 0 0 1 172.75 156.7000000000001H265.25A30 30 0 1 1 265.25 216.6999999999999zM265.35 704.7H735.35A30 30 0 0 1 735.35 764.7H265.35A30 30 0 0 1 265.35 704.7zM265.35 469.8000000000001H735.35A30 30 0 0 1 735.35 529.8H265.35A30 30 0 0 1 265.35 469.8000000000001z" />
    <glyph glyph-name="news-1"
      unicode="&#x6E;&#x65;&#x77;&#x73;"
      horiz-adv-x="999.8" d="M265.35 216.6999999999999H156.55C153.4 216.6999999999999 150.1 216.6999999999999 146.95 217C145.2 217 143.5 217.3 141.95 217.5C135.5 218.1 149.5 216.4 143.15 217.5C139.25 218.1 135.4 219.05 131.6 219.9499999999999S125.15 221.8 122 222.8999999999999C120.45 223.3999999999999 118.85 223.9999999999999 117.3 224.65C125.95 221.3 120.25 223.4499999999999 118.4 224.25A114.05 114.05 0 0 0 99.9 234.75L95.9 237.6C103.25 232.2000000000001 98.45 235.6500000000001 96.8 237C94.25 239.0500000000001 91.8 241.3000000000001 89.55 243.5500000000001S84.95 248.25 82.8 250.7000000000001C81.7 251.9 80.65 253.15 79.65 254.5000000000001C76.3 258.6000000000002 84.15 248.4000000000001 79.65 254.9000000000001A122.59999999999998 122.59999999999998 0 0 0 69.65 271.75C68.95 273.2000000000001 68.2 274.7000000000001 67.5 276.25C64.95 281.85 70.25 269.4 68 275.25C66.55 278.9000000000001 65.45 282.6 64.35 286.35S62.7 292.9 62 296.35L61.1 301.3499999999999C62.65 291.85 61.5 298.1 61.1 300.15A123.5 123.5 0 0 0 60.5 312.5V844.4Q60.5 848.85 60.8 853.3C60.8 855.05 61.1 856.75 61.3 858.3C61.9 864.75 60.2 850.75 61.3 857.1C61.9 861 62.85 864.85 63.75 868.65S65.6 875.1 66.7 878.25C67.2 879.8 67.8 881.4 68.45 882.95C65.1 874.3 67.25 880 68.05 881.85A114.05 114.05 0 0 0 78.4 900.25L81.25 904.25C75.85 896.9 79.3 901.7 80.65 903.35C82.7 905.9 84.95 908.35 87.2 910.6S91.9 915.2 94.35 917.35C95.55 918.45 96.8 919.5 98.15 920.5C102.25 923.85 92.05 916 98.55 920.5A122.59999999999998 122.59999999999998 0 0 0 115.4 930.5L119.9 932.65C125.5 935.2 113.05 929.9 118.9 932.15C122.55 933.6 126.25 934.7 130 935.8S136.55 937.45 140 938.15L145 939.05C135.5 937.5 141.75 938.65 143.8 939.05Q149.9 939.65 156.05 939.65H843.55C846.8 939.65 850.1999999999999 939.65 853.55 939.35C855.3 939.35 856.9999999999999 939.05 858.55 938.85C865 938.25 851 939.95 857.3499999999999 938.85C860.6999999999999 938.35 863.9999999999999 937.65 867.3499999999999 936.8S873.8 935.05 876.9499999999999 933.95C878.4999999999999 933.45 880.0999999999998 932.85 881.65 932.2C886.65 930.35 874.6 935.35 882.05 932.2A117.65 117.65 0 0 0 899.1999999999999 922.5C900.55 921.6 901.85 920.65 903.1999999999998 919.65C908.2 916.1 897.4999999999998 924.25 902.2999999999998 920.35C905.2499999999998 918 908.0999999999998 915.35 910.8499999999998 912.8S915.4499999999998 908.1 917.5999999999998 905.65C918.6999999999998 904.45 919.7499999999998 903.2 920.7499999999998 901.85C924.6499999999997 897.15 916.3499999999996 907.65 920.0499999999998 902.75A126.64999999999999 126.64999999999999 0 0 0 931.0499999999998 884.6C931.7499999999998 883.15 932.4999999999998 881.65 933.1999999999998 880.1C935.7499999999995 874.5 930.4499999999998 886.95 932.6999999999996 881.1C933.8999999999996 878.0500000000001 934.9499999999998 874.75 935.8499999999996 871.6S937.5999999999996 865.05 938.2999999999994 861.6L939.1999999999996 856.6C940.0999999999996 851.2 938.3999999999996 864.55 939.1999999999996 856.1A118.3 118.3 0 0 0 939.8999999999997 843.2V313.2C939.8999999999997 309.7499999999999 939.8999999999997 306.3499999999999 939.6 302.9C939.6 301.15 939.2999999999998 299.45 939.0999999999998 297.9C938.4999999999998 291.4500000000001 940.1999999999998 305.4500000000001 939.0999999999998 299.0999999999999C938.5999999999998 295.75 937.8999999999997 292.4500000000001 937.0499999999998 289.1S935.2999999999998 282.65 934.1999999999998 279.5C933.6999999999998 277.95 933.1 276.3499999999999 932.4499999999998 274.8000000000002C930.6 269.8000000000002 935.5999999999998 281.85 932.4499999999998 274.4000000000001A117.65 117.65 0 0 0 922.7499999999998 257.2500000000001C921.85 255.9000000000001 920.9 254.6 919.9 253.2500000000001C916.35 248.2500000000001 924.4 258.9500000000001 920.6 254.1500000000001C918.2499999999998 251.2000000000002 915.6 248.3500000000002 913.05 245.6000000000002S908.35 241.0000000000001 905.9 238.8500000000002C904.7 237.7500000000001 903.45 236.7000000000002 902.1 235.7000000000002C897.3999999999999 231.8000000000002 907.8999999999997 240.1 902.9999999999998 236.4000000000001A126.64999999999999 126.64999999999999 0 0 0 884.8499999999999 225.4000000000001L880.3499999999999 223.2500000000001C874.75 220.7000000000001 887.2 226.0000000000001 881.3499999999999 223.7500000000001C878.3 222.5500000000001 875 221.5000000000001 871.8499999999999 220.6S865.2999999999998 218.85 861.8499999999999 218.1500000000001C860.1999999999998 217.7500000000001 858.4999999999999 217.5500000000001 856.8499999999998 217.25C851.4499999999998 216.35 864.7999999999998 218.0500000000001 856.3499999999998 217.25A139.59999999999997 139.59999999999997 0 0 0 841.7499999999997 216.65H578C563 216.65 553.9000000000001 205 544.3000000000001 195.4000000000001L510.2 161.3000000000002L427.0000000000001 78.0999999999999L400.15 51.2499999999999A30 30 0 1 1 442.7 8.6999999999999Q509 75 575.15 141.15L599.35 165.3500000000001C592.3 162.4000000000001 585.15 159.4500000000002 578.1 156.5500000000002H841.6999999999999A158.29999999999998 158.29999999999998 0 0 1 977.1000000000003 231.1500000000002A170.70000000000002 170.70000000000002 0 0 1 999.75 323.9000000000002V820.95A259.50000000000006 259.50000000000006 0 0 1 994.75 883.1A150 150 0 0 1 946.2 962A160.00000000000003 160.00000000000003 0 0 1 853.55 999.55C842.2999999999998 1000.35 830.8 999.85 819.55 999.85H158.5A157.4 157.4 0 0 1 38.05 945.95A160.00000000000003 160.00000000000003 0 0 1 0.5 853.3C0.1 847.9 0.2 842.4 0.2 836.95V342.75C0.2 328.55 -0.5 314.0500000000002 0.8 299.9000000000001A156.8 156.8 0 0 1 120.3 160.8000000000001A232.35000000000005 232.35000000000005 0 0 1 172.75 156.7000000000001H265.25A30 30 0 1 1 265.25 216.6999999999999zM265.35 704.7H735.35A30 30 0 0 1 735.35 764.7H265.35A30 30 0 0 1 265.35 704.7zM265.35 469.8000000000001H735.35A30 30 0 0 1 735.35 529.8H265.35A30 30 0 0 1 265.35 469.8000000000001z" />
    <glyph glyph-name="dropdown"
      unicode="&#xF10D;"
      horiz-adv-x="1000" d="M100 666.5999999999997L181.75 749.9999999999997L442.35 476.7999999999997L712.35 749.9999999999998L799.95 666.5999999999997L762.65 628.3499999999997L442.3 299.9999999999998z" />
    <glyph glyph-name="dropdown-1"
      unicode="&#x64;&#x72;&#x6F;&#x70;&#x64;&#x6F;&#x77;&#x6E;"
      horiz-adv-x="1000" d="M100 666.5999999999997L181.75 749.9999999999997L442.35 476.7999999999997L712.35 749.9999999999998L799.95 666.5999999999997L762.65 628.3499999999997L442.3 299.9999999999998z" />
    <glyph glyph-name="comment"
      unicode="&#xF10E;"
      horiz-adv-x="1000" d="M973.685 950H26.3158C11.8421 950 0 937.73 0 922.7335V268.3350000000001C0 253.3400000000001 11.8421 241.0700000000001 26.3158 241.0700000000001H236.842V77.4699999999999C236.842 52.93 264.4735 40.66 281.579 58.385L460.5265 241.0700000000001H973.685C988.16 241.0700000000001 1000 253.3400000000001 1000 268.3350000000001V922.7335C1000 937.73 988.16 950 973.685 950zM947.3699999999998 295.605H450C443.4210000000001 295.605 436.8420000000001 292.875 431.579 287.425L289.4735 142.91V268.3350000000001C289.4735 283.3350000000001 277.6315 295.605 263.158 295.605H52.6315V895.467H947.3699999999998V295.605z" />
    <glyph glyph-name="comment-1"
      unicode="&#x63;&#x6F;&#x6D;&#x6D;&#x65;&#x6E;&#x74;"
      horiz-adv-x="1000" d="M973.685 950H26.3158C11.8421 950 0 937.73 0 922.7335V268.3350000000001C0 253.3400000000001 11.8421 241.0700000000001 26.3158 241.0700000000001H236.842V77.4699999999999C236.842 52.93 264.4735 40.66 281.579 58.385L460.5265 241.0700000000001H973.685C988.16 241.0700000000001 1000 253.3400000000001 1000 268.3350000000001V922.7335C1000 937.73 988.16 950 973.685 950zM947.3699999999998 295.605H450C443.4210000000001 295.605 436.8420000000001 292.875 431.579 287.425L289.4735 142.91V268.3350000000001C289.4735 283.3350000000001 277.6315 295.605 263.158 295.605H52.6315V895.467H947.3699999999998V295.605z" />
    <glyph glyph-name="vk"
      unicode="&#xF10F;"
      horiz-adv-x="1000" d="M219.326 738.0654999999999C247.2435 666.06 282.6245 598.1715 329.2245 537.226C335.405 529.116 343.1960000000001 521.905 351.4035 516.0345C363.3915 507.4355 374.702 510.458 379.5765 524.7805C384.732 539.8105 389.4635 570.271 389.7445 586.0540000000001C390.514 627.2945 389.6295 654.3215 387.508 695.5115000000001C386.1325 721.893 377.1535 745.057 339.998 752.049C328.524 754.217 327.458 764.081 334.83 773.9215C350.1765 794.408 371.5555 797.673 394.739 798.965C432.3135 801.085 470.0255 799.355 507.645 798.965C522.97 798.8185 538.385 797.529 553.475 794.093C573.1600000000001 789.611 583.6999999999999 775.1895 586.9449999999999 755.119C588.625 744.766 589.49 734.1225 589.255 723.6469999999999C588.275 678.6315 586.2 633.64 585.71 588.6485C585.5 570.989 586.735 552.8889999999999 590.35 535.691C595.4100000000001 511.723 611.0350000000001 505.706 627.015 523.0235C647.305 545.019 665.195 569.769 681.985 594.9065C712.49 640.6289999999999 735.2750000000001 690.8075 754.89 742.5450000000001C765.0350000000001 769.2415 772.805 775.04 800.3 775.112C851.985 775.235 903.67 775.283 955.35 775.112C964.52 775.0640000000001 974.105 774.1614999999999 982.755 771.2864999999999C996.795 766.609 1002.37 754.649 999.08 739.4725000000001C991.41 703.9075 973.005 673.6790000000001 953.3 644.6175000000001C921.675 597.9949999999999 888.5300000000001 552.491 856.1600000000001 506.405C852.0350000000001 500.5345 848.395 494.275 845.0100000000001 487.92C832.9050000000001 465.0699999999999 833.745 452.255 851.4 433.235C879.505 402.9550000000001 909.595 374.625 936.81 343.52C956.59 320.89 974.895 296.3350000000001 990.57 270.49C1010.395 237.805 998.15 207.015 961.115 201.535C937.815 198.095 824.005 201.505 818.12 201.535C787.525 201.675 760.7 212.76 739.105 234.4649999999999C715.08 258.63 693.25 285.135 670.1850000000001 310.3449999999999C663.235 317.9450000000001 655.815 325.23 647.82 331.5850000000001C628.95 346.615 610.4300000000001 343.28 601.615 320.135C594.08 300.26 587.575 248.06 587.27 243.6C585.685 220.29 571.48 205.43 546.48 203.995C474.2945 199.9000000000001 404.3475 208.3050000000001 339.1855 244.77C283.956 275.66 239.854 319.3349999999999 201.6505 370.265C140.9645 451.1700000000001 93.0305 540.096 49.2678 631.635C47.03125 636.315 2.70636 734.8245 1.51523 739.4775C-2.44413 755.0575 1.2494 769.941 13.8534 775.0640000000001C21.71075 778.2570000000001 167.8515 775.0745000000001 170.2825 774.9385C193.6015 773.6195 209.503 763.3439999999999 219.326 738.0654999999999z" />
    <glyph glyph-name="vk-1"
      unicode="&#x76;&#x6B;"
      horiz-adv-x="1000" d="M219.326 738.0654999999999C247.2435 666.06 282.6245 598.1715 329.2245 537.226C335.405 529.116 343.1960000000001 521.905 351.4035 516.0345C363.3915 507.4355 374.702 510.458 379.5765 524.7805C384.7320000000001 539.8105 389.4635 570.271 389.7445 586.0540000000001C390.514 627.2945 389.6295 654.3215 387.508 695.5115000000001C386.1325 721.893 377.1535 745.057 339.998 752.049C328.524 754.217 327.4580000000001 764.081 334.83 773.9215C350.1765 794.408 371.5555 797.673 394.739 798.965C432.3135 801.085 470.0255 799.355 507.645 798.965C522.97 798.8185 538.385 797.529 553.475 794.093C573.1600000000001 789.611 583.6999999999999 775.1895 586.9449999999999 755.119C588.625 744.766 589.49 734.1225 589.255 723.6469999999999C588.275 678.6315 586.2 633.64 585.71 588.6485C585.5 570.989 586.735 552.8889999999999 590.35 535.691C595.4100000000001 511.723 611.0350000000001 505.706 627.015 523.0235C647.305 545.019 665.195 569.769 681.985 594.9065C712.49 640.6289999999999 735.2750000000001 690.8075 754.89 742.5450000000001C765.0350000000001 769.2415 772.805 775.04 800.3 775.112C851.985 775.235 903.67 775.283 955.35 775.112C964.52 775.0640000000001 974.105 774.1614999999999 982.755 771.2864999999999C996.795 766.609 1002.37 754.649 999.08 739.4725000000001C991.41 703.9075 973.005 673.6790000000001 953.3 644.6175000000001C921.675 597.9949999999999 888.5300000000001 552.491 856.1600000000001 506.405C852.0350000000001 500.5345 848.395 494.275 845.0100000000001 487.92C832.9050000000001 465.0699999999999 833.745 452.255 851.4 433.235C879.505 402.9550000000001 909.595 374.625 936.81 343.52C956.59 320.89 974.895 296.3350000000001 990.57 270.49C1010.395 237.805 998.15 207.015 961.115 201.535C937.815 198.095 824.005 201.505 818.12 201.535C787.525 201.675 760.7 212.76 739.105 234.4649999999999C715.08 258.63 693.25 285.135 670.1850000000001 310.3449999999999C663.235 317.9450000000001 655.815 325.23 647.82 331.5850000000001C628.95 346.615 610.4300000000001 343.28 601.615 320.135C594.08 300.26 587.575 248.06 587.27 243.6C585.685 220.29 571.48 205.43 546.48 203.995C474.2945 199.9000000000001 404.3475000000001 208.3050000000001 339.1855 244.77C283.956 275.6600000000001 239.854 319.3349999999999 201.6505 370.265C140.9645 451.1700000000001 93.0305 540.096 49.2678 631.635C47.03125 636.315 2.70636 734.8245 1.51523 739.4775C-2.44413 755.0575 1.2494 769.941 13.8534 775.0640000000001C21.71075 778.2570000000001 167.8515 775.0745000000001 170.2825 774.9385C193.6015 773.6195 209.503 763.3439999999999 219.326 738.0654999999999z" />
    <glyph glyph-name="universe"
      unicode="&#xF110;"
      horiz-adv-x="951.5" d="M0 475.8A476.45000000000005 476.45000000000005 0 0 0 287.05 912.5A71.35000000000001 71.35000000000001 0 0 0 425 948.8A475.75000000000006 475.75000000000006 0 1 0 0 475.7499999999999zM50 475.8A425.4 425.4 0 1 1 421.7 898A71.35000000000001 71.35000000000001 0 0 0 315 869.9A426.29999999999995 426.29999999999995 0 0 1 50 475.8zM238.55 242.2000000000001A71.35000000000001 71.35000000000001 0 0 0 163.55 359.7000000000001A333.00000000000006 333.00000000000006 0 0 0 658.55 754.05A71.35000000000001 71.35000000000001 0 0 0 753.8000000000001 658.6A333.00000000000006 333.00000000000006 0 0 0 238.8 242.2000000000001zM475.7 193.9500000000001A281.75 281.75 0 0 1 715.7 623.25A71.35000000000001 71.35000000000001 0 0 0 623.2 715.75A281.8 281.8 0 0 1 210.5000000000001 380.7500000000001H214.0500000000001A71.35000000000001 71.35000000000001 0 0 0 277.2000000000001 276.1000000000002A280.7 280.7 0 0 1 475.75 194.0999999999999zM333 475.8A142.70000000000002 142.70000000000002 0 1 0 475.7 333.05A142.70000000000002 142.70000000000002 0 0 0 333 475.8z" />
    <glyph glyph-name="universe-1"
      unicode="&#x75;&#x6E;&#x69;&#x76;&#x65;&#x72;&#x73;&#x65;"
      horiz-adv-x="951.5" d="M0 475.8A476.45000000000005 476.45000000000005 0 0 0 287.05 912.5A71.35000000000001 71.35000000000001 0 0 0 425 948.8A475.75000000000006 475.75000000000006 0 1 0 0 475.7499999999999zM50 475.8A425.4 425.4 0 1 1 421.7 898A71.35000000000001 71.35000000000001 0 0 0 315 869.9A426.29999999999995 426.29999999999995 0 0 1 50 475.8zM238.55 242.2000000000001A71.35000000000001 71.35000000000001 0 0 0 163.55 359.7000000000001A333.00000000000006 333.00000000000006 0 0 0 658.55 754.05A71.35000000000001 71.35000000000001 0 0 0 753.8000000000001 658.6A333.00000000000006 333.00000000000006 0 0 0 238.8 242.2000000000001zM475.7 193.9500000000001A281.75 281.75 0 0 1 715.7 623.25A71.35000000000001 71.35000000000001 0 0 0 623.2 715.75A281.8 281.8 0 0 1 210.5000000000001 380.7500000000001H214.0500000000001A71.35000000000001 71.35000000000001 0 0 0 277.2000000000001 276.1000000000002A280.7 280.7 0 0 1 475.75 194.0999999999999zM333 475.8A142.70000000000002 142.70000000000002 0 1 0 475.7 333.05A142.70000000000002 142.70000000000002 0 0 0 333 475.8z" />
  </font>
</defs>
</svg>
